<?xml version="1.0" encoding="utf-8"?>
<!-- Generator: Adobe Illustrator 12.0.0, SVG Export Plug-In . SVG Version: 6.00 Build 51448)  -->
<!DOCTYPE svg PUBLIC "-//W3C//DTD SVG 1.1//EN" "http://www.w3.org/Graphics/SVG/1.1/DTD/svg11.dtd" [
	<!ENTITY ns_svg "http://www.w3.org/2000/svg">
	<!ENTITY ns_xlink "http://www.w3.org/1999/xlink">
]>
<svg  version="1.1" id="レイヤー_1" xmlns="&ns_svg;" xmlns:xlink="&ns_xlink;" width="128" height="128" viewBox="0 0 128 128"
	 overflow="visible" enable-background="new 0 0 128 128" xml:space="preserve">
<path fill="#161D21" d="M109.341,113.065H20.569c-3.53,0-6.54-2.523-7.116-5.977l-2.601-14.586h108.205l-2.602,14.586
	C115.87,110.532,112.86,113.065,109.341,113.065z"/>
<linearGradient id="XMLID_502_" gradientUnits="userSpaceOnUse" x1="178.3604" y1="15.6328" x2="301.9119" y2="-107.9159" gradientTransform="matrix(0.7813 0 0 -0.7813 -122.3223 16.9502)">
	<stop  offset="0.2239" style="stop-color:#434343"/>
	<stop  offset="0.5619" style="stop-color:#323535"/>
	<stop  offset="0.8997" style="stop-color:#404141"/>
</linearGradient>
<path fill="url(#XMLID_502_)" d="M111.626,99.143H18.284c-4.106,0-7.431-3.296-7.431-7.367V13.563c0-4.07,3.325-7.367,7.431-7.367
	h93.342c4.105,0,7.432,3.297,7.432,7.367v78.221C119.058,95.847,115.731,99.143,111.626,99.143z"/>
<path fill="#E53A35" d="M44.016,50.616H23.552c-3.075,0-5.574-2.477-5.574-5.524V16.592c0-3.048,2.499-5.525,5.574-5.525h20.464
	c3.075,0,5.574,2.477,5.574,5.525v28.499C49.59,48.139,47.091,50.616,44.016,50.616z"/>
<g opacity="0.2">
	<path fill="#EEEEEE" d="M111.328,9.328c2.665,0,4.83,2.145,4.83,4.788v77.633c0,0.175-0.02,0.378-0.047,0.645
		c-0.028,0.176-0.028,0.359-0.018,0.534l-2.489,13.96c-0.346,2.072-2.137,3.572-4.255,3.572h-88.78c-2.118,0-3.911-1.5-4.264-3.601
		l-2.49-13.932c0.009-0.175,0-0.358-0.019-0.534c-0.037-0.257-0.046-0.46-0.046-0.645V14.115c0-2.643,2.164-4.788,4.831-4.788
		H111.328 M111.328,6.454H18.582c-4.265,0-7.729,3.425-7.729,7.661v77.633c0,0.351,0.028,0.682,0.074,1.022h-0.074l2.601,14.586
		c0.576,3.444,3.586,5.975,7.116,5.975h88.771c3.529,0,6.539-2.521,7.115-5.975l2.602-14.586h-0.075
		c0.047-0.332,0.075-0.672,0.075-1.022V14.115C119.058,9.879,115.592,6.454,111.328,6.454z"/>
</g>
<path fill="#E53A35" d="M17.718,87.079V64.925c0-3.048,2.499-5.524,5.573-5.524h46.606c3.075,0,5.573,2.477,5.573,5.524V87.07
	c0,3.048-2.498,5.525-5.573,5.525H23.291C20.207,92.604,17.718,90.127,17.718,87.079z"/>
<path fill="#E53A35" d="M82.865,86.592V65.413c0-3.047,2.498-5.525,5.573-5.525h17.919c3.075,0,5.573,2.478,5.573,5.525v21.179
	c0,3.049-2.498,5.524-5.573,5.524H88.438C85.363,92.116,82.865,89.648,82.865,86.592z"/>
<path fill="#E53A35" d="M107.25,51.085H61.518c-3.074,0-5.573-2.477-5.573-5.525V16.592c0-3.048,2.499-5.525,5.573-5.525h45.732
	c3.075,0,5.573,2.477,5.573,5.525v28.977C112.823,48.618,110.325,51.085,107.25,51.085z"/>
<rect x="94.849" y="62.624" fill="#A16541" width="0.882" height="0.902"/>
<g>
	<defs>
		<path id="XMLID_384_" d="M17.718,88.7V63.167c0-4.052,3.344-7.367,7.432-7.367h44.748c3.075,0,5.573,2.478,5.573,5.526v27.384
			c0,3.048-2.498,5.525-5.573,5.525H23.291C20.207,94.226,17.718,91.757,17.718,88.7z"/>
	</defs>
	<clipPath id="XMLID_503_">
		<use xlink:href="#XMLID_384_" />
	</clipPath>
	
		<radialGradient id="XMLID_504_" cx="199.3457" cy="-42.7949" r="42.3864" gradientTransform="matrix(0.9289 0 0 -0.9208 -140.178 19.288)" gradientUnits="userSpaceOnUse">
		<stop  offset="0.4088" style="stop-color:#FFFFFF"/>
		<stop  offset="0.724" style="stop-color:#ECEFF0"/>
		<stop  offset="0.9654" style="stop-color:#D0D8DC"/>
	</radialGradient>
	<path clip-path="url(#XMLID_503_)" fill="url(#XMLID_504_)" d="M78.629,96.528H13.556l0.855-16.345
		c0.798-10.295,9.661-18.666,20-19.945c3.279-0.405,7.144-0.654,11.687-0.654s8.407,0.249,11.686,0.654
		c10.331,1.28,19.201,9.65,20.001,19.945L78.629,96.528z"/>
</g>
<g>
	<defs>
		<path id="XMLID_387_" d="M17.718,88.7V63.167c0-4.052,3.344-7.367,7.432-7.367h44.748c3.075,0,5.573,2.478,5.573,5.526v27.384
			c0,3.048-2.498,5.525-5.573,5.525H23.291C20.207,94.226,17.718,91.757,17.718,88.7z"/>
	</defs>
	<clipPath id="XMLID_505_">
		<use xlink:href="#XMLID_387_" />
	</clipPath>
	<g clip-path="url(#XMLID_505_)">
		
			<radialGradient id="XMLID_506_" cx="198.2842" cy="-49.2451" r="39.2007" gradientTransform="matrix(0.9289 0 0 -0.9208 -140.178 19.288)" gradientUnits="userSpaceOnUse">
			<stop  offset="0.2277" style="stop-color:#FFFFFF"/>
			<stop  offset="0.6304" style="stop-color:#ECEFF0"/>
			<stop  offset="0.9654" style="stop-color:#D0D8DC"/>
		</radialGradient>
		<ellipse fill="url(#XMLID_506_)" cx="76.604" cy="93.287" rx="3.994" ry="3.959"/>
		
			<radialGradient id="XMLID_507_" cx="199.3447" cy="-42.7964" r="42.3865" gradientTransform="matrix(0.9289 0 0 -0.9208 -140.178 19.288)" gradientUnits="userSpaceOnUse">
			<stop  offset="0.4088" style="stop-color:#FFFFFF"/>
			<stop  offset="0.724" style="stop-color:#ECEFF0"/>
			<stop  offset="0.9654" style="stop-color:#D0D8DC"/>
		</radialGradient>
		<path fill="url(#XMLID_507_)" d="M77.784,83.194c1.05-0.719,1.736-1.906,1.736-3.27c0-1.195-0.539-2.265-1.393-2.993
			c-0.614-0.516-0.838-1.353-0.698-2.135c0.039-0.223,0.056-0.442,0.056-0.673c0-2.191-1.792-3.959-3.993-3.959
			c-0.02,0-0.028,0-0.047,0.009c0.038-0.23,0.075-0.461,0.075-0.701c0-2.189-1.795-3.958-3.995-3.958
			c0-2.191-1.793-3.959-3.995-3.959c-0.167,0-0.325,0.009-0.482,0.028c-0.79,0.101-1.542-0.295-2.044-0.903
			c-0.724-0.884-1.83-1.454-3.074-1.454c-0.566,0-1.096,0.119-1.58,0.331c-0.594,0.267-1.318,0.157-1.802-0.276
			c-0.706-0.625-1.625-1.013-2.657-1.013c-0.687,0-1.328,0.175-1.885,0.479c-0.586,0.322-1.348,0.249-1.821-0.221
			c-0.716-0.709-1.7-1.151-2.796-1.151c-0.808,0-1.551,0.24-2.184,0.653c-0.603,0.396-1.355,0.396-1.959,0
			c-0.622-0.414-1.375-0.653-2.184-0.653c-1.17,0-2.22,0.497-2.944,1.289c-0.502,0.553-1.32,0.718-2.035,0.497
			c-0.363-0.11-0.753-0.174-1.161-0.174c-0.92,0-1.765,0.313-2.435,0.829c-0.724,0.562-1.625,0.865-2.526,0.672
			c-0.26-0.056-0.539-0.083-0.817-0.083c-1.951,0-3.567,1.381-3.92,3.214c-0.167-0.02-0.335-0.047-0.502-0.047
			c-2.08,0-3.762,1.574-3.957,3.582h-0.037c-2.211,0-3.995,1.777-3.995,3.96v0.103c0.019,0.717-0.334,1.37-0.938,1.767
			c-1.078,0.709-1.793,1.916-1.793,3.287c0,0.782,0.242,1.511,0.631,2.127c-0.669,0.709-1.087,1.657-1.087,2.708
			c0,1.16,0.512,2.2,1.319,2.927c-0.808,0.729-1.328,1.769-1.328,2.938c0,1.298,0.641,2.439,1.616,3.167
			c-1.152,0.856-1.839,2.302-1.552,3.896c0.279,1.546,1.515,2.816,3.075,3.138c2.583,0.535,4.849-1.408,4.849-3.875
			c0-1.299-0.64-2.44-1.616-3.169c0.976-0.718,1.616-1.868,1.616-3.167c0-1.16-0.511-2.2-1.319-2.929
			c0.808-0.727,1.329-1.767,1.329-2.938c0-0.782-0.242-1.51-0.632-2.127c0.67-0.709,1.087-1.655,1.087-2.706
			c0-0.47-0.092-0.922-0.25-1.336c1.589-0.413,2.778-1.769,2.945-3.434h0.037c1.952,0,3.568-1.382,3.921-3.214
			c0.167,0.018,0.334,0.046,0.501,0.046c1.533,0,2.852-0.865,3.521-2.118c0.64,0.442,1.42,0.7,2.257,0.7
			c1.672,0,3.093-1.014,3.697-2.459c0.678,0.526,1.524,0.848,2.443,0.848c1.292,0,2.434-0.618,3.159-1.566
			c0.734,0.94,1.867,1.566,3.158,1.566c1.17,0,2.211-0.507,2.945-1.299c0.66,1.299,1.997,2.191,3.558,2.191
			c1.003,0,1.914-0.378,2.61-0.985c0.697,1.16,1.96,1.952,3.428,1.952c0.65,0,1.263-0.165,1.802-0.441
			c0.511,1.602,2.006,2.771,3.791,2.771c0,2.192,1.793,3.958,3.994,3.958c0.019,0,0.027,0,0.046-0.008
			c-0.037,0.23-0.074,0.46-0.074,0.7c0,1.712,1.105,3.157,2.638,3.711c-0.379,0.606-0.611,1.315-0.611,2.08
			c0,1.778,1.188,3.26,2.805,3.767c-1.228,0.828-1.961,2.32-1.683,3.96c0.271,1.565,1.515,2.854,3.075,3.176
			c2.584,0.534,4.858-1.409,4.858-3.867C80.598,85.183,79.408,83.7,77.784,83.194z"/>
	</g>
</g>
<g>
	<defs>
		<path id="XMLID_391_" d="M17.718,88.7V63.167c0-4.052,3.344-7.367,7.432-7.367h44.748c3.075,0,5.573,2.478,5.573,5.526v27.384
			c0,3.048-2.498,5.525-5.573,5.525H23.291C20.207,94.226,17.718,91.757,17.718,88.7z"/>
	</defs>
	<clipPath id="XMLID_508_">
		<use xlink:href="#XMLID_391_" />
	</clipPath>
	<ellipse clip-path="url(#XMLID_508_)" fill="#B0BEC5" cx="45.53" cy="68.203" rx="4.812" ry="3.904"/>
</g>
<g>
	<defs>
		<path id="XMLID_393_" d="M17.718,88.7V63.167c0-4.052,3.344-7.367,7.432-7.367h44.748c3.075,0,5.573,2.478,5.573,5.526v27.384
			c0,3.048-2.498,5.525-5.573,5.525H23.291C20.207,94.226,17.718,91.757,17.718,88.7z"/>
	</defs>
	<clipPath id="XMLID_509_">
		<use xlink:href="#XMLID_393_" />
	</clipPath>
	
		<radialGradient id="XMLID_510_" cx="198.4307" cy="-12.542" r="4.5054" gradientTransform="matrix(0.9289 0 0 -1.0535 -140.178 52.137)" gradientUnits="userSpaceOnUse">
		<stop  offset="0.1384" style="stop-color:#F47C20"/>
		<stop  offset="0.8823" style="stop-color:#E45325"/>
	</radialGradient>
	<ellipse clip-path="url(#XMLID_509_)" fill="url(#XMLID_510_)" cx="45.53" cy="66.564" rx="4.812" ry="3.904"/>
</g>
<g>
	<defs>
		<path id="XMLID_396_" d="M29.346,92.376L3.909,88.352c-4.037-0.639-6.812-4.435-6.167-8.436l7.052-43.8
			c0.483-3.011,3.346-5.066,6.382-4.585l27.281,4.315c3.037,0.48,5.111,3.317,4.625,6.326l-7.345,45.621
			C35.242,90.81,32.392,92.856,29.346,92.376z"/>
	</defs>
	<clipPath id="XMLID_511_">
		<use xlink:href="#XMLID_396_" />
	</clipPath>
	<path opacity="0.2" clip-path="url(#XMLID_511_)" fill="#B0BEC5" enable-background="new    " d="M22.937,83.343
		c0.12-0.742,1.457-1.15,2.988-0.908c1.53,0.242,2.672,1.042,2.553,1.783c-0.12,0.745-1.457,1.15-2.986,0.909
		C23.96,84.883,22.817,84.086,22.937,83.343z"/>
</g>
<g>
	<defs>
		<path id="XMLID_398_" d="M30.055,103.044L4.617,99.021c-4.036-0.639-6.811-4.436-6.167-8.436l7.052-43.802
			c0.484-3.008,3.346-5.064,6.383-4.584l27.281,4.316c3.037,0.48,5.11,3.316,4.625,6.327l-7.345,45.619
			C35.951,101.478,33.102,103.525,30.055,103.044z"/>
	</defs>
	<clipPath id="XMLID_512_">
		<use xlink:href="#XMLID_398_" />
	</clipPath>
	<path opacity="0.2" clip-path="url(#XMLID_512_)" fill="#B0BEC5" enable-background="new    " d="M30.199,88.363
		c0.12-0.746,1.186-1.193,2.382-1.005c1.195,0.189,2.068,0.947,1.948,1.688c-0.121,0.743-1.186,1.192-2.382,1.004
		C30.951,89.86,30.08,89.105,30.199,88.363z"/>
</g>
<g>
	<defs>
		<path id="XMLID_400_" d="M22.422,88.038L8.428,66.6c-2.22-3.401-1.229-7.985,2.203-10.186l37.57-24.094
			c2.582-1.656,6.038-0.921,7.707,1.638L70.916,56.95c1.67,2.559,0.93,5.984-1.652,7.641l-39.13,25.093
			C27.54,91.337,24.096,90.605,22.422,88.038z"/>
	</defs>
	<clipPath id="XMLID_513_">
		<use xlink:href="#XMLID_400_" />
	</clipPath>
	<path opacity="0.2" clip-path="url(#XMLID_513_)" fill="#B0BEC5" enable-background="new    " d="M18.19,79.336
		c1.3-0.835,2.689-0.999,3.103-0.367c0.412,0.632-0.309,1.821-1.609,2.655c-1.3,0.834-2.689,0.998-3.103,0.366
		C16.169,81.358,16.889,80.169,18.19,79.336z"/>
</g>
<g>
	<defs>
		<path id="XMLID_402_" d="M18.338,89.684l-23.166-11.17c-3.676-1.77-5.221-6.203-3.433-9.846l19.572-39.889
			c1.345-2.74,4.686-3.884,7.451-2.552l24.844,11.978c2.766,1.334,3.92,4.645,2.575,7.386L25.796,87.136
			C24.438,89.879,21.111,91.02,18.338,89.684z"/>
	</defs>
	<clipPath id="XMLID_514_">
		<use xlink:href="#XMLID_402_" />
	</clipPath>
	<path opacity="0.2" clip-path="url(#XMLID_514_)" fill="#90A4AE" enable-background="new    " d="M16.711,87.691
		c0.333-0.678,1.545-0.771,2.708-0.21c1.162,0.559,1.835,1.563,1.503,2.239s-1.544,0.771-2.706,0.211
		C17.053,89.37,16.379,88.368,16.711,87.691z"/>
</g>
<g>
	<defs>
		<path id="XMLID_404_" d="M16.963,93.162L4.045,71.071c-2.05-3.506-0.834-8.037,2.703-10.069l38.716-22.244
			c2.66-1.529,6.075-0.627,7.617,2.01l13.854,23.693c1.541,2.638,0.633,6.022-2.027,7.551L24.586,95.18
			C21.913,96.705,18.511,95.807,16.963,93.162z"/>
	</defs>
	<clipPath id="XMLID_515_">
		<use xlink:href="#XMLID_404_" />
	</clipPath>
	<path opacity="0.2" clip-path="url(#XMLID_515_)" fill="#90A4AE" enable-background="new    " d="M25.017,91.144
		c1.12-0.644,2.334-0.637,2.715,0.015c0.382,0.651-0.217,1.698-1.336,2.342c-1.118,0.645-2.333,0.636-2.714-0.015
		C23.301,92.835,23.898,91.784,25.017,91.144z"/>
</g>
<g>
	<defs>
		<path id="XMLID_406_" d="M18.961,97.209l-4.061-25.215c-0.644-4.001,2.131-7.797,6.168-8.436l44.188-6.99
			c3.037-0.48,5.897,1.576,6.382,4.585l4.354,27.042c0.486,3.01-1.588,5.846-4.625,6.326l-46.021,7.281
			C22.298,102.274,19.447,100.227,18.961,97.209z"/>
	</defs>
	<clipPath id="XMLID_516_">
		<use xlink:href="#XMLID_406_" />
	</clipPath>
	<path opacity="0.2" clip-path="url(#XMLID_516_)" fill="#B0BEC5" enable-background="new    " d="M72.254,83.845
		c1.53-0.242,2.868,0.165,2.987,0.908c0.119,0.744-1.023,1.542-2.554,1.783c-1.53,0.242-2.867-0.165-2.986-0.907
		C69.581,84.886,70.725,84.088,72.254,83.845z"/>
</g>
<g>
	<defs>
		<path id="XMLID_408_" d="M18.258,95.505l-4.06-25.215c-0.645-4,2.13-7.797,6.167-8.436l44.188-6.99
			c3.036-0.48,5.896,1.575,6.382,4.585l4.354,27.043c0.486,3.011-1.589,5.846-4.625,6.326L24.642,100.1
			C21.594,100.571,18.743,98.523,18.258,95.505z"/>
	</defs>
	<clipPath id="XMLID_517_">
		<use xlink:href="#XMLID_408_" />
	</clipPath>
	<path opacity="0.2" clip-path="url(#XMLID_517_)" fill="#B0BEC5" enable-background="new    " d="M61.069,87.389
		c1.531-0.242,2.868,0.166,2.988,0.909c0.119,0.743-1.023,1.541-2.554,1.783c-1.529,0.242-2.867-0.166-2.986-0.908
		C58.396,88.43,59.54,87.632,61.069,87.389z"/>
</g>
<g>
	<defs>
		<path id="XMLID_410_" d="M52.477,129.872l-21.627-13.869c-3.432-2.202-4.423-6.785-2.203-10.188l24.307-37.24
			c1.669-2.559,5.126-3.292,7.708-1.637l23.195,14.875c2.581,1.655,3.321,5.081,1.651,7.64L60.192,128.24
			C58.509,130.802,55.066,131.534,52.477,129.872z"/>
	</defs>
	<clipPath id="XMLID_518_">
		<use xlink:href="#XMLID_410_" />
	</clipPath>
	<path opacity="0.2" clip-path="url(#XMLID_518_)" fill="#B0BEC5" enable-background="new    " d="M70.915,76.113
		c0.411-0.633,1.8-0.467,3.101,0.366c1.304,0.834,2.021,2.022,1.608,2.653c-0.411,0.634-1.8,0.469-3.1-0.365
		C71.224,77.934,70.502,76.745,70.915,76.113z"/>
</g>
<g>
	<defs>
		<path id="XMLID_412_" d="M40.469,135.085l-22.286-12.807c-3.537-2.032-4.753-6.563-2.704-10.067L37.92,73.834
			c1.542-2.637,4.958-3.538,7.617-2.009l23.904,13.733c2.66,1.529,3.568,4.913,2.025,7.55l-23.372,39.97
			C46.54,135.719,43.138,136.617,40.469,135.085z"/>
	</defs>
	<clipPath id="XMLID_519_">
		<use xlink:href="#XMLID_412_" />
	</clipPath>
	<path opacity="0.2" clip-path="url(#XMLID_519_)" fill="#90A4AE" enable-background="new    " d="M67.676,91.164
		c0.382-0.65,1.597-0.658,2.715-0.014c1.118,0.642,1.718,1.691,1.335,2.342c-0.379,0.649-1.595,0.657-2.714,0.016
		C67.894,92.864,67.296,91.815,67.676,91.164z"/>
</g>
<g>
	<defs>
		<path id="XMLID_414_" d="M32.811,114.425l-25.198-5.299c-3.998-0.84-6.575-4.771-5.727-8.733l9.285-43.389
			c0.638-2.981,3.601-4.891,6.608-4.258l27.025,5.683c3.008,0.632,4.934,3.568,4.295,6.55l-9.67,45.19
			C38.781,113.157,35.828,115.059,32.811,114.425z"/>
	</defs>
	<clipPath id="XMLID_520_">
		<use xlink:href="#XMLID_414_" />
	</clipPath>
	<path opacity="0.2" clip-path="url(#XMLID_520_)" fill="#B0BEC5" enable-background="new    " d="M38.992,91.844
		c0.158-0.736,1.31-1.117,2.575-0.851c1.264,0.265,2.162,1.077,2.005,1.814c-0.158,0.736-1.311,1.116-2.575,0.852
		C39.732,93.392,38.834,92.58,38.992,91.844z"/>
</g>
<g>
	<defs>
		<path id="XMLID_416_" d="M17.875,90.309l-1.396-25.495c-0.222-4.045,2.937-7.535,7.018-7.755l44.681-2.404
			c3.068-0.165,5.7,2.174,5.866,5.217l1.497,27.344c0.167,3.043-2.192,5.652-5.264,5.815l-46.535,2.505
			C20.663,95.691,18.042,93.362,17.875,90.309z"/>
	</defs>
	<clipPath id="XMLID_521_">
		<use xlink:href="#XMLID_416_" />
	</clipPath>
	
		<ellipse transform="matrix(-0.0546 -0.9985 0.9985 -0.0546 -36.1375 139.1796)" opacity="0.2" clip-path="url(#XMLID_521_)" fill="#B0BEC5" enable-background="new    " cx="47.819" cy="86.697" rx="1.363" ry="3.131"/>
</g>
<g>
	<defs>
		<path id="XMLID_418_" d="M21.25,97.545L10.946,74.143c-1.634-3.714,0.093-8.078,3.839-9.698l41.011-17.742
			c2.818-1.219,6.108,0.06,7.339,2.854l11.049,25.099c1.23,2.794-0.061,6.055-2.877,7.273l-42.714,18.477
			C25.762,101.622,22.484,100.347,21.25,97.545z"/>
	</defs>
	<clipPath id="XMLID_522_">
		<use xlink:href="#XMLID_418_" />
	</clipPath>
	<path opacity="0.2" clip-path="url(#XMLID_522_)" fill="#B0BEC5" enable-background="new    " d="M40.307,83.484
		c1.185-0.514,2.392-0.369,2.696,0.32c0.303,0.689-0.411,1.664-1.596,2.177s-2.393,0.369-2.695-0.321
		C38.407,84.971,39.123,83.996,40.307,83.484z"/>
</g>
<g>
	<defs>
		<path id="XMLID_420_" d="M35.077,98.843l-23.933-9.444c-3.797-1.5-5.667-5.805-4.156-9.569l16.552-41.21
			c1.137-2.832,4.383-4.217,7.24-3.09l25.668,10.13c2.857,1.127,4.254,4.345,3.117,7.177L42.327,95.757
			C41.177,98.595,37.943,99.974,35.077,98.843z"/>
	</defs>
	<clipPath id="XMLID_523_">
		<use xlink:href="#XMLID_420_" />
	</clipPath>
	<path opacity="0.2" clip-path="url(#XMLID_523_)" fill="#B0BEC5" enable-background="new    " d="M31.764,80.231
		c0.282-0.7,1.483-0.883,2.684-0.409c1.201,0.475,1.947,1.426,1.666,2.124c-0.281,0.7-1.482,0.884-2.683,0.409
		C32.229,81.881,31.483,80.93,31.764,80.231z"/>
</g>
<g>
	<defs>
		<path id="XMLID_422_" d="M39.419,89.283l-25.358-4.491c-4.024-0.711-6.727-4.558-6.01-8.548l7.872-43.663
			c0.541-3,3.44-5.003,6.466-4.467l27.197,4.817c3.026,0.537,5.046,3.411,4.506,6.411L45.895,84.82
			C45.343,87.825,42.455,89.822,39.419,89.283z"/>
	</defs>
	<clipPath id="XMLID_524_">
		<use xlink:href="#XMLID_422_" />
	</clipPath>
	<path opacity="0.2" clip-path="url(#XMLID_524_)" fill="#D0D8DC" enable-background="new    " d="M27.563,75.903
		c0.228-1.262,1.017-2.179,1.765-2.044c0.747,0.132,1.168,1.262,0.941,2.522c-0.228,1.262-1.018,2.179-1.766,2.045
		C27.756,78.296,27.335,77.166,27.563,75.903z"/>
</g>
<g>
	<defs>
		<path id="XMLID_424_" d="M49.113,103.464l-25.467-3.852c-4.041-0.61-6.842-4.388-6.225-8.395l6.747-43.848
			c0.464-3.013,3.312-5.088,6.351-4.629l27.312,4.129c3.04,0.46,5.134,3.283,4.67,6.295l-7.028,45.67
			C54.999,101.856,52.161,103.923,49.113,103.464z"/>
	</defs>
	<clipPath id="XMLID_525_">
		<use xlink:href="#XMLID_424_" />
	</clipPath>
	<path opacity="0.2" clip-path="url(#XMLID_525_)" fill="#D0D8DC" enable-background="new    " d="M39.773,77.618
		c0.114-0.745,1.244-1.189,2.522-0.998c1.278,0.194,2.222,0.953,2.107,1.697c-0.115,0.744-1.244,1.191-2.522,0.998
		S39.659,78.361,39.773,77.618z"/>
</g>
<g>
	<defs>
		<path id="XMLID_426_" d="M32.202,111.28L18.796,89.477c-2.128-3.461-1.012-8.016,2.478-10.125l38.21-23.081
			c2.625-1.586,6.06-0.76,7.659,1.842l14.377,23.384c1.602,2.603,0.768,6.007-1.858,7.593l-39.796,24.04
			C37.229,114.713,33.807,113.89,32.202,111.28z"/>
	</defs>
	<clipPath id="XMLID_526_">
		<use xlink:href="#XMLID_426_" />
	</clipPath>
	<path opacity="0.2" clip-path="url(#XMLID_526_)" fill="#B0BEC5" enable-background="new    " d="M64.811,73.249
		c1.104-0.667,2.32-0.687,2.715-0.044c0.396,0.644-0.181,1.704-1.283,2.372c-1.105,0.667-2.32,0.686-2.715,0.043
		C63.132,74.979,63.707,73.916,64.811,73.249z"/>
</g>
<g>
	<defs>
		<path id="XMLID_428_" d="M34.427,82.895L10.494,73.45c-3.798-1.499-5.667-5.805-4.156-9.57l16.553-41.21
			c1.137-2.832,4.383-4.217,7.24-3.09l25.668,10.13c2.857,1.127,4.254,4.345,3.117,7.177L41.677,79.81
			C40.526,82.646,37.292,84.025,34.427,82.895z"/>
	</defs>
	<clipPath id="XMLID_527_">
		<use xlink:href="#XMLID_428_" />
	</clipPath>
	<path opacity="0.2" clip-path="url(#XMLID_527_)" fill="#B0BEC5" enable-background="new    " d="M19.58,72.734
		c0.281-0.699,1.482-0.882,2.684-0.408c1.202,0.475,1.948,1.425,1.667,2.125c-0.28,0.699-1.483,0.881-2.684,0.406
		C20.046,74.385,19.3,73.434,19.58,72.734z"/>
</g>
<g>
	<defs>
		<path id="XMLID_430_" d="M20.055,105.47L8.243,82.778c-1.874-3.602-0.435-8.067,3.197-9.924l39.767-20.339
			c2.733-1.396,6.099-0.331,7.509,2.377L71.384,79.23c1.41,2.709,0.335,6.045-2.399,7.441l-41.416,21.183
			C24.823,109.248,21.469,108.188,20.055,105.47z"/>
	</defs>
	<clipPath id="XMLID_528_">
		<use xlink:href="#XMLID_430_" />
	</clipPath>
	<path opacity="0.2" clip-path="url(#XMLID_528_)" fill="#90A4AE" enable-background="new    " d="M53.105,91.106
		c1.148-0.588,2.363-0.522,2.71,0.146c0.348,0.669-0.301,1.688-1.449,2.274c-1.149,0.589-2.363,0.522-2.711-0.147
		C51.306,92.713,51.956,91.692,53.105,91.106z"/>
</g>
<g>
	<defs>
		<path id="XMLID_432_" d="M23.112,99.524l-7.891-24.304c-1.252-3.858,0.907-8.028,4.798-9.27l42.595-13.586
			c2.926-0.934,6.071,0.666,7.013,3.567l8.463,26.067c0.94,2.902-0.672,6.018-3.6,6.952l-44.363,14.151
			C27.189,104.028,24.056,102.437,23.112,99.524z"/>
	</defs>
	<clipPath id="XMLID_529_">
		<use xlink:href="#XMLID_432_" />
	</clipPath>
	<path opacity="0.2" clip-path="url(#XMLID_529_)" fill="#D0D8DC" enable-background="new    " d="M54.783,75.765
		c1.476-0.469,2.86-0.27,3.092,0.448c0.233,0.715-0.774,1.677-2.249,2.146c-1.474,0.471-2.858,0.272-3.092-0.443
		C52.301,77.199,53.309,76.235,54.783,75.765z"/>
</g>
<g>
	<defs>
		<path id="XMLID_434_" d="M61.17,117.068l-22.677-12.113c-3.598-1.923-4.955-6.413-3.016-9.979L56.705,55.93
			c1.459-2.683,4.844-3.689,7.551-2.243L88.576,66.68c2.707,1.444,3.719,4.801,2.262,7.483l-22.11,40.667
			C67.257,117.518,63.885,118.518,61.17,117.068z"/>
	</defs>
	<clipPath id="XMLID_530_">
		<use xlink:href="#XMLID_434_" />
	</clipPath>
	<path opacity="0.2" clip-path="url(#XMLID_530_)" fill="#D0D8DC" enable-background="new    " d="M60.936,65.5
		c0.36-0.661,1.757-0.608,3.122,0.12c1.365,0.728,2.178,1.857,1.818,2.52c-0.361,0.663-1.758,0.609-3.122-0.121
		C61.389,67.291,60.575,66.163,60.936,65.5z"/>
</g>
<g>
	<defs>
		<path id="XMLID_436_" d="M31.061,89.888L16.392,68.899c-2.329-3.33-1.483-7.944,1.876-10.25l36.782-25.261
			c2.528-1.735,6.004-1.109,7.756,1.396l15.734,22.511c1.752,2.504,1.12,5.951-1.407,7.688l-38.309,26.31
			C36.282,93.023,32.817,92.4,31.061,89.888z"/>
	</defs>
	<clipPath id="XMLID_531_">
		<use xlink:href="#XMLID_436_" />
	</clipPath>
	<path opacity="0.2" clip-path="url(#XMLID_531_)" fill="#D0D8DC" enable-background="new    " d="M25.528,67.016
		c0.894-0.614,1.969-0.611,2.402,0.008c0.432,0.619,0.058,1.618-0.837,2.232c-0.894,0.614-1.969,0.61-2.402-0.009
		C24.26,68.629,24.633,67.628,25.528,67.016z"/>
</g>
<g>
	<defs>
		<path id="XMLID_438_" d="M29.047,96.042l-14.67-20.99c-2.328-3.329-1.483-7.942,1.876-10.25l36.782-25.26
			c2.528-1.735,6.005-1.11,7.756,1.396l15.732,22.51c1.752,2.504,1.122,5.952-1.407,7.687L36.808,97.443
			C34.267,99.178,30.804,98.554,29.047,96.042z"/>
	</defs>
	<clipPath id="XMLID_532_">
		<use xlink:href="#XMLID_438_" />
	</clipPath>
	<path opacity="0.2" clip-path="url(#XMLID_532_)" fill="#D0D8DC" enable-background="new    " d="M34.447,73.289
		c0.894-0.614,1.969-0.61,2.402,0.008c0.432,0.619,0.058,1.618-0.836,2.232c-0.895,0.614-1.97,0.612-2.402-0.008
		C33.179,74.902,33.554,73.904,34.447,73.289z"/>
</g>
<g>
	<defs>
		<path id="XMLID_440_" d="M35.348,108.144L20.677,87.154c-2.328-3.328-1.483-7.943,1.877-10.249l36.782-25.261
			c2.528-1.736,6.005-1.11,7.756,1.395L82.825,75.55c1.75,2.506,1.119,5.953-1.408,7.688l-38.309,26.308
			C40.568,111.28,37.104,110.657,35.348,108.144z"/>
	</defs>
	<clipPath id="XMLID_533_">
		<use xlink:href="#XMLID_440_" />
	</clipPath>
	<path opacity="0.2" clip-path="url(#XMLID_533_)" fill="#D0D8DC" enable-background="new    " d="M57.131,69.347
		c0.893-0.614,1.968-0.611,2.401,0.008c0.432,0.619,0.058,1.618-0.837,2.232c-0.894,0.614-1.969,0.609-2.402-0.008
		C55.861,70.959,56.236,69.961,57.131,69.347z"/>
</g>
<g>
	<defs>
		<path id="XMLID_442_" d="M65.785,106.81l-23.938-9.426c-3.798-1.497-5.672-5.802-4.163-9.566l16.52-41.219
			c1.136-2.832,4.381-4.219,7.238-3.094l25.674,10.11c2.857,1.125,4.258,4.341,3.123,7.174l-17.208,42.93
			C71.883,106.558,68.651,107.938,65.785,106.81z"/>
	</defs>
	<clipPath id="XMLID_534_">
		<use xlink:href="#XMLID_442_" />
	</clipPath>
	<path opacity="0.2" clip-path="url(#XMLID_534_)" fill="#D0D8DC" enable-background="new    " d="M53.375,61.936
		c0.281-0.7,1.327-0.944,2.337-0.546c1.011,0.398,1.604,1.288,1.323,1.987c-0.28,0.699-1.327,0.943-2.338,0.545
		C53.687,63.524,53.095,62.635,53.375,61.936z"/>
</g>
<g>
	<defs>
		<path id="XMLID_444_" d="M25.423,92.428l-8.153-24.221c-1.294-3.843,0.82-8.038,4.698-9.32l42.446-14.039
			c2.917-0.965,6.079,0.601,7.051,3.492l8.745,25.977c0.973,2.892-0.607,6.025-3.523,6.99l-44.21,14.62
			C29.549,96.887,26.399,95.327,25.423,92.428z"/>
	</defs>
	<clipPath id="XMLID_535_">
		<use xlink:href="#XMLID_444_" />
	</clipPath>
	<path opacity="0.2" clip-path="url(#XMLID_535_)" fill="#D0D8DC" enable-background="new    " d="M32.712,65.759
		c1.032-0.34,2.063-0.038,2.303,0.675c0.24,0.715-0.4,1.568-1.433,1.911c-1.032,0.341-2.063,0.039-2.303-0.675
		C31.04,66.956,31.681,66.101,32.712,65.759z"/>
</g>
<g>
	<defs>
		<path id="XMLID_446_" d="M62.333,83.678l-25.624-2.629c-4.065-0.417-7.047-4.056-6.626-8.086l4.609-44.121
			c0.317-3.031,3.06-5.24,6.118-4.926l27.481,2.821c3.059,0.313,5.286,3.032,4.97,6.064l-4.8,45.953
			C68.133,81.794,65.4,83.993,62.333,83.678z"/>
	</defs>
	<clipPath id="XMLID_536_">
		<use xlink:href="#XMLID_446_" />
	</clipPath>
	
		<ellipse transform="matrix(-0.9948 -0.1022 0.1022 -0.9948 67.9478 126.8195)" opacity="0.2" clip-path="url(#XMLID_536_)" fill="#D0D8DC" enable-background="new    " cx="37.221" cy="61.67" rx="1.969" ry="1.363"/>
</g>
<g>
	<defs>
		<path id="XMLID_448_" d="M22.326,102.82l-7.965-24.283c-1.263-3.853,0.882-8.03,4.77-9.283L61.686,55.54
			c2.924-0.943,6.073,0.647,7.024,3.545l8.541,26.043c0.951,2.898-0.652,6.02-3.577,6.963l-44.321,14.284
			C26.416,107.312,23.278,105.727,22.326,102.82z"/>
	</defs>
	<clipPath id="XMLID_537_">
		<use xlink:href="#XMLID_448_" />
	</clipPath>
	<path opacity="0.2" clip-path="url(#XMLID_537_)" fill="#B0BEC5" enable-background="new    " d="M64.528,80.05
		c1.474-0.474,2.858-0.28,3.093,0.436c0.233,0.716-0.77,1.683-2.242,2.156c-1.474,0.475-2.859,0.28-3.094-0.437
		C62.051,81.489,63.055,80.523,64.528,80.05z"/>
</g>
<g>
	<defs>
		<path id="XMLID_450_" d="M42.476,119.699l-22.817-11.849c-3.621-1.879-5.031-6.353-3.135-9.941l20.763-39.292
			c1.427-2.699,4.8-3.744,7.524-2.33l24.472,12.707c2.723,1.415,3.778,4.757,2.35,7.458l-21.625,40.92
			C48.568,120.076,45.208,121.117,42.476,119.699z"/>
	</defs>
	<clipPath id="XMLID_538_">
		<use xlink:href="#XMLID_450_" />
	</clipPath>
	<path opacity="0.2" clip-path="url(#XMLID_538_)" fill="#B0BEC5" enable-background="new    " d="M53.458,82.628
		c0.352-0.668,1.75-0.631,3.123,0.082c1.372,0.713,2.199,1.831,1.847,2.497s-1.75,0.63-3.123-0.083
		C53.932,84.411,53.105,83.293,53.458,82.628z"/>
</g>
<g>
	<defs>
		<path id="XMLID_452_" d="M25.115,94.316L17.15,70.032c-1.264-3.853,0.883-8.03,4.769-9.283l42.556-13.715
			c2.923-0.943,6.073,0.647,7.022,3.545l8.543,26.044c0.949,2.898-0.652,6.021-3.577,6.962L32.143,97.869
			C29.207,98.807,26.069,97.223,25.115,94.316z"/>
	</defs>
	<clipPath id="XMLID_539_">
		<use xlink:href="#XMLID_452_" />
	</clipPath>
	<path opacity="0.1" clip-path="url(#XMLID_539_)" fill="#D0D8DC" enable-background="new    " d="M38.853,67.076
		c1.474-0.476,2.858-0.28,3.093,0.436c0.234,0.716-0.77,1.681-2.243,2.156c-1.473,0.475-2.857,0.279-3.093-0.437
		S37.379,67.551,38.853,67.076z"/>
</g>
<radialGradient id="XMLID_540_" cx="97.6455" cy="5.333" r="13.1239" gradientTransform="matrix(1.1421 0 0 -0.9208 -77.969 19.288)" gradientUnits="userSpaceOnUse">
	<stop  offset="0.0529" style="stop-color:#FFCB28"/>
	<stop  offset="1" style="stop-color:#F9A01B"/>
</radialGradient>
<path fill="url(#XMLID_540_)" d="M47.639,20.183c0.771,1.961,0.771,6.152,0.771,6.152s-7.691,1.998-14.835,1.998
	c-7.004,0-14.779-1.998-14.779-1.998s0-3.988,0.716-6.152c1.43-4.31,5.871-8.149,14.063-8.149
	C41.768,12.034,45.967,15.938,47.639,20.183z"/>
<linearGradient id="XMLID_541_" gradientUnits="userSpaceOnUse" x1="199.5488" y1="-20.8862" x2="199.5488" y2="-0.8018" gradientTransform="matrix(0.7813 0 0 -0.7813 -122.3223 16.9502)">
	<stop  offset="0.0303" style="stop-color:#F37021"/>
	<stop  offset="1" style="stop-color:#F9A01B"/>
</linearGradient>
<path fill="url(#XMLID_541_)" d="M48.41,25.727c0,4.502-3.716,7.542-14.835,7.542c-11.119,0-14.834-3.039-14.834-7.542
	c0-4.503,6.642-8.149,14.834-8.149C41.768,17.577,48.41,21.224,48.41,25.727z"/>
<polygon fill="#568B3E" points="44.536,23.848 46.357,23.148 45.679,21.233 44.202,23.351 "/>
<polygon fill="#568B3E" points="42.845,23.526 43.041,21.887 42.149,21.049 41.787,23.553 "/>
<polygon fill="#568B3E" points="33.138,22.273 33.343,20.625 32.451,19.788 32.423,21.049 32.404,22.301 "/>
<polygon fill="#568B3E" points="30.23,22.089 30.918,22.301 31.067,20.745 30.054,20.368 "/>
<polygon fill="#568B3E" points="25.094,22.808 25.363,21.491 23.69,21.049 23.933,23.369 "/>
<linearGradient id="XMLID_542_" gradientUnits="userSpaceOnUse" x1="-744.98" y1="1.6875" x2="-744.98" y2="-19.4385" gradientTransform="matrix(-0.7813 0 0 -0.7813 -548.1445 16.9502)">
	<stop  offset="0" style="stop-color:#BFCA33"/>
	<stop  offset="0.8669" style="stop-color:#679F42"/>
</linearGradient>
<path fill="url(#XMLID_542_)" d="M43.849,20.404c-1.05-0.737-1.886,0.34-1.672,0.856c0.13,0.322,0.437,0.525,0.343,0.902
	c-0.092,0.377-0.399,0.433-0.948,0.396c-0.612-0.037-0.947-0.506-1.031-0.921c-0.372-1.85-1.523-2.256-2.387-1.832
	c-0.706,0.35,0.075,1.013-0.566,1.271c-0.743,0.294-1.171,0.12-1.524-0.295c-0.269-0.313,0.083-0.838-0.445-1.483
	c-0.874-1.077-2.991-0.424-3.205,0.323c-0.213,0.746,0.493,0.783,0.521,1.427s-1.208,0.994-1.831,0.737
	c-1.282-0.525,0.065-0.47-0.046-1.289c-0.158-1.124-1.775-0.774-2.146-0.553c-0.985,0.581-0.623,1.078-0.864,1.437
	c-0.576,0.829-1.44,0.377-1.886,0.12c-0.446-0.258-0.539-1.354-1.913-0.939c-0.938,0.286-0.548,0.949-0.167,1.362
	c0.177,0.194,0.111,0.498-0.13,0.608c-0.901,0.396-1.598-0.203-2.09-0.479c-0.585-0.322-1.45-0.276-1.858,0.157
	c-0.483,0.524,1.022,0.819,0.428,1.343c-0.492,0.434-1.152-0.229-1.282-0.414c-0.761-1.012-2.024,1.169-1.003,1.41
	c1.013,0.239,0.817,1.131,0.632,1.436c-0.373,0.616-1.086-0.856-0.855,1.648c0.158,1.758,1.43,2.698,2.359,3.314
	c1.236,0.829,24.051,2.036,27.209,0.139c0.79-0.479,2.964-3.5,2.397-4.604c-0.845-1.621-0.957,0.451-1.496-0.156
	c-1.17-1.327,0.623-1.464,0.325-2.256c-0.315-0.857-0.584-0.148-0.901-0.47c-0.455-0.469-0.279-0.746-0.056-1.068
	c0.232-0.341-0.984-1.437-1.793-1.437c-0.799,0,0.149,0.966-0.362,1.225c-0.511,0.258-0.845,0.027-1.394-0.498
	C43.663,21.325,44.472,20.837,43.849,20.404z"/>
<radialGradient id="XMLID_543_" cx="97.6455" cy="-6.6885" r="13.1241" gradientTransform="matrix(1.1421 0 0 -0.9208 -77.969 19.288)" gradientUnits="userSpaceOnUse">
	<stop  offset="0.0574" style="stop-color:#FFCB28"/>
	<stop  offset="1" style="stop-color:#F9A01B"/>
</radialGradient>
<path fill="url(#XMLID_543_)" d="M47.639,31.251c0.771,1.962,0.771,6.151,0.771,6.151S40.718,39.4,33.574,39.4
	c-7.004,0-14.779-1.999-14.779-1.999s0-3.987,0.716-6.151c1.43-4.309,5.871-8.149,14.063-8.149
	C41.768,23.102,45.967,27.006,47.639,31.251z"/>
<linearGradient id="XMLID_544_" gradientUnits="userSpaceOnUse" x1="199.5488" y1="-35.0532" x2="199.5488" y2="-14.9702" gradientTransform="matrix(0.7813 0 0 -0.7813 -122.3223 16.9502)">
	<stop  offset="0.0303" style="stop-color:#F37021"/>
	<stop  offset="1" style="stop-color:#F9A01B"/>
</linearGradient>
<path fill="url(#XMLID_544_)" d="M48.41,36.794c0,4.503-3.716,7.542-14.835,7.542c-11.119,0-14.834-3.039-14.834-7.542
	c0-4.502,6.642-8.148,14.834-8.148C41.768,28.646,48.41,32.292,48.41,36.794z"/>
<ellipse transform="matrix(-0.1851 -0.9827 0.9827 -0.1851 9.8399 58.0463)" fill="#FDD836" cx="28.986" cy="24.944" rx="0.737" ry="1.411"/>
<ellipse transform="matrix(-0.0768 -0.997 0.997 -0.0768 11.6468 59.1225)" fill="#FDD836" cx="33.194" cy="24.169" rx="0.737" ry="1.413"/>
<ellipse transform="matrix(-0.0769 -0.997 0.997 -0.0769 8.9073 59.4395)" fill="#F9BF2C" cx="31.969" cy="25.596" rx="0.736" ry="1.411"/>
<ellipse transform="matrix(-0.9997 -0.0251 0.0251 -0.9997 71.6596 52.6702)" fill="#F9BF2C" cx="36.16" cy="25.886" rx="1.412" ry="0.736"/>
<ellipse transform="matrix(-0.0514 -0.9987 0.9987 -0.0514 9.0399 61.68)" fill="#FDD836" cx="33.814" cy="26.547" rx="0.737" ry="1.412"/>
<ellipse transform="matrix(-0.9897 -0.1433 0.1433 -0.9897 71.4765 54.049)" fill="#FDD836" cx="37.685" cy="24.45" rx="1.412" ry="0.737"/>
<path fill="#F9BF2C" d="M26.491,25.877c0.709-0.321,1.422-0.282,1.592,0.089c0.172,0.37-0.265,0.93-0.975,1.25
	c-0.709,0.322-1.422,0.282-1.593-0.088C25.346,26.759,25.782,26.198,26.491,25.877z"/>
<ellipse fill="#F9BF2C" cx="36.287" cy="27.614" rx="1.412" ry="0.737"/>
<ellipse transform="matrix(-0.9982 -0.0603 0.0603 -0.9982 76.5457 54.2858)" fill="#F9BF2C" cx="39.093" cy="25.987" rx="1.412" ry="0.737"/>
<path fill="#F9A823" d="M25.998,27.654c0.738-0.248,1.443-0.135,1.574,0.25c0.132,0.386-0.361,0.899-1.101,1.146
	c-0.738,0.247-1.444,0.134-1.575-0.252C24.766,28.413,25.258,27.9,25.998,27.654z"/>
<ellipse transform="matrix(-0.9872 -0.1596 0.1596 -0.9872 74.5457 61.221)" fill="#F9A823" cx="39.731" cy="27.617" rx="1.412" ry="0.737"/>
<path fill="#F9A823" d="M41.743,28.096c0.161-0.375,0.872-0.434,1.591-0.131c0.718,0.302,1.17,0.85,1.009,1.225
	c-0.16,0.375-0.871,0.434-1.589,0.131C42.035,29.019,41.583,28.47,41.743,28.096z"/>
<path fill="#F9A823" d="M40.627,25.915c0.123-0.388,0.826-0.515,1.57-0.284s1.248,0.732,1.125,1.121
	c-0.122,0.389-0.824,0.515-1.569,0.285C41.008,26.805,40.505,26.303,40.627,25.915z"/>
<path fill="#F9A823" d="M23.795,25.913c0.67-0.394,1.384-0.429,1.594-0.079c0.208,0.35-0.167,0.954-0.838,1.347
	c-0.671,0.394-1.385,0.429-1.593,0.08C22.749,26.908,23.123,26.306,23.795,25.913z"/>
<path fill="#F9A823" d="M22.878,28.078c0.671-0.394,1.385-0.429,1.594-0.079c0.209,0.35-0.166,0.953-0.837,1.347
	c-0.671,0.394-1.384,0.429-1.593,0.079C21.832,29.074,22.208,28.471,22.878,28.078z"/>
<polygon fill="#568B3E" points="46.273,35.386 46.078,33.737 46.97,33.922 46.738,36.178 "/>
<polygon fill="#568B3E" points="22.381,35.229 20.56,34.52 21.239,32.614 22.715,34.732 "/>
<polygon fill="#568B3E" points="24.072,34.907 23.877,33.259 24.759,32.421 25.13,34.935 "/>
<polygon fill="#568B3E" points="33.77,33.645 33.574,32.007 34.466,31.168 34.485,32.421 34.504,33.673 "/>
<polygon fill="#568B3E" points="36.678,33.461 36,33.673 35.851,32.117 36.863,31.739 "/>
<polygon fill="#568B3E" points="41.824,34.18 41.545,32.872 43.217,32.421 42.985,34.742 "/>
<linearGradient id="XMLID_545_" gradientUnits="userSpaceOnUse" x1="199.4102" y1="-12.8765" x2="199.4102" y2="-34.0013" gradientTransform="matrix(0.7813 0 0 -0.7813 -122.3223 16.9502)">
	<stop  offset="0" style="stop-color:#BFCA33"/>
	<stop  offset="0.8669" style="stop-color:#679F42"/>
</linearGradient>
<path fill="url(#XMLID_545_)" d="M23.059,31.776c1.049-0.736,1.886,0.341,1.672,0.857c-0.129,0.322-0.437,0.524-0.343,0.902
	c0.092,0.369,0.399,0.433,0.948,0.396c0.612-0.037,0.947-0.506,1.031-0.92c0.372-1.851,1.523-2.256,2.387-1.833
	c0.706,0.35-0.074,1.013,0.566,1.271c0.744,0.295,1.171,0.12,1.524-0.294c0.27-0.313-0.083-0.838,0.445-1.482
	c0.874-1.078,2.991-0.424,3.205,0.322c0.213,0.746-0.493,0.783-0.521,1.428c-0.027,0.644,1.208,0.994,1.831,0.736
	c1.282-0.524-0.065-0.469,0.046-1.289c0.158-1.123,1.775-0.774,2.146-0.552c0.985,0.58,0.622,1.077,0.864,1.437
	c0.576,0.829,1.44,0.377,1.886,0.12c0.445-0.258,0.539-1.354,1.913-0.939c0.939,0.286,0.548,0.949,0.167,1.363
	c-0.176,0.193-0.111,0.498,0.13,0.608c0.901,0.396,1.598-0.203,2.09-0.479c0.586-0.323,1.45-0.277,1.859,0.156
	c0.482,0.525-1.022,0.82-0.427,1.344c0.491,0.433,1.151-0.23,1.281-0.414c0.762-1.013,1.904,0.875,1.003,1.409
	c-1.143,0.682,0.447,0.765,0.447,1.114c0.009,2.984-1.347,4.457-2.583,5.286c-1.235,0.829-24.05,2.035-27.209,0.138
	c-1.356-0.82-2.21-4.623-1.338-5.377c0.864-0.756-0.176-0.838,0.122-1.64c0.315-0.856,0.584-0.147,0.901-0.469
	c0.455-0.47,0.278-0.746,0.056-1.068c-0.232-0.341,0.984-1.437,1.792-1.437c0.799,0-0.148,0.966,0.362,1.225
	c0.511,0.257,0.845,0.027,1.394-0.498C23.245,32.696,22.446,32.209,23.059,31.776z"/>
<linearGradient id="XMLID_546_" gradientUnits="userSpaceOnUse" x1="199.4004" y1="-31.8398" x2="199.4004" y2="-17.8267" gradientTransform="matrix(0.7813 0 0 -0.7813 -122.3223 16.9502)">
	<stop  offset="0" style="stop-color:#346A34"/>
	<stop  offset="0.9267" style="stop-color:#679F42"/>
</linearGradient>
<path opacity="0.5" fill="url(#XMLID_546_)" enable-background="new    " d="M46.617,42.338c-1.281,0.82-23.354,2.219-27.208,0.138
	c-1.616-0.875-1.69-4.641-1.69-4.641l0.696-1.335c0,0,0.985,2.044,1.775,2.33c0.788,0.286-0.874-4.613-0.874-4.613
	s2.833,4.033,3.958,4.144c1.124,0.11,0.91-4.429,0.91-4.429s1.654,6.169,2.62,6.226c0.976,0.054,0.78-6.741,1.588-7.44
	c0.8-0.701,2.341,8.407,3.317,8.867c0.975,0.451,0.716-7.9,1.671-8.867c1.097-1.096,0.233,7.145,1.961,7.605
	c1.691,0.46,1.318-6.611,3.232-7.053c1.032-0.24-0.427,6.823,1.032,7.053c2.489,0.396,2.981-5.645,4.328-6.069
	c0.855-0.267-0.056,5.581,0.511,6.014c0.743,0.562,4.756-2.928,4.756-2.928S49.292,40.625,46.617,42.338z"/>
<g>
	<defs>
		<path id="XMLID_461_" d="M44.61,50.772H22.539c-2.592,0-4.681-2.081-4.681-4.641l-7.813-1.437V10.708c0-2.569,2.1-4.64,4.683-4.64
			h37.688c2.591,0,4.681,2.08,4.681,4.64v33.895l-7.812,1.529C49.292,48.691,47.193,50.772,44.61,50.772z"/>
	</defs>
	<clipPath id="XMLID_547_">
		<use xlink:href="#XMLID_461_" />
	</clipPath>
	<g clip-path="url(#XMLID_547_)">
		
			<radialGradient id="XMLID_548_" cx="97.6455" cy="-19.8135" r="13.1239" gradientTransform="matrix(1.1421 0 0 -0.9208 -77.969 19.288)" gradientUnits="userSpaceOnUse">
			<stop  offset="0.0603" style="stop-color:#FFCB28"/>
			<stop  offset="1" style="stop-color:#F9A01B"/>
		</radialGradient>
		<path fill="url(#XMLID_548_)" d="M47.639,43.341c0.771,1.962,0.771,6.151,0.771,6.151s-7.691,1.999-14.835,1.999
			c-7.004,0-14.779-1.999-14.779-1.999s0-3.987,0.716-6.151c1.43-4.31,5.871-8.149,14.063-8.149
			C41.768,35.192,45.967,39.097,47.639,43.341z"/>
		
			<linearGradient id="XMLID_549_" gradientUnits="userSpaceOnUse" x1="199.5488" y1="-44.8657" x2="199.5488" y2="-30.4331" gradientTransform="matrix(0.7813 0 0 -0.7813 -122.3223 16.9502)">
			<stop  offset="0.0303" style="stop-color:#F37021"/>
			<stop  offset="1" style="stop-color:#F9A01B"/>
		</linearGradient>
		<path fill="url(#XMLID_549_)" d="M48.41,48.876c0,4.502-4.152,2.817-15.271,2.817c-11.12,0-14.398,1.686-14.398-2.817
			c0-4.503,6.642-8.149,14.834-8.149C41.768,40.727,48.41,44.382,48.41,48.876z"/>
		<polygon fill="#568B3E" points="44.536,47.016 46.357,46.315 45.679,44.41 44.202,46.518 		"/>
		<polygon fill="#568B3E" points="42.845,46.703 43.041,45.054 42.149,44.217 41.787,46.721 		"/>
		<polygon fill="#568B3E" points="33.138,45.441 33.343,43.802 32.451,42.964 32.423,44.217 32.404,45.468 		"/>
		<polygon fill="#568B3E" points="30.23,45.256 30.918,45.468 31.067,43.913 30.054,43.535 		"/>
		<polygon fill="#568B3E" points="25.094,45.975 25.363,44.658 23.69,44.217 23.933,46.537 		"/>
		
			<linearGradient id="XMLID_550_" gradientUnits="userSpaceOnUse" x1="-744.4282" y1="-27.9722" x2="-744.4282" y2="-49.0976" gradientTransform="matrix(-0.7813 0 0 -0.7813 -548.1445 16.9502)">
			<stop  offset="0" style="stop-color:#BFCA33"/>
			<stop  offset="0.8669" style="stop-color:#679F42"/>
		</linearGradient>
		<path fill="url(#XMLID_550_)" d="M43.849,43.572c-1.05-0.736-1.886,0.341-1.672,0.856c0.13,0.322,0.437,0.525,0.343,0.903
			c-0.092,0.368-0.399,0.432-0.948,0.396c-0.612-0.037-0.947-0.507-1.031-0.92c-0.372-1.852-1.523-2.257-2.387-1.833
			c-0.706,0.351,0.075,1.014-0.566,1.271c-0.743,0.294-1.171,0.12-1.524-0.295c-0.269-0.313,0.083-0.838-0.445-1.482
			c-0.874-1.078-2.991-0.424-3.205,0.321c-0.213,0.747,0.493,0.783,0.521,1.428c0.028,0.644-1.208,0.994-1.831,0.736
			c-1.282-0.525,0.065-0.47-0.046-1.29c-0.158-1.123-1.775-0.773-2.146-0.552c-0.985,0.58-0.623,1.077-0.864,1.436
			c-0.576,0.829-1.44,0.378-1.886,0.12c-0.446-0.257-0.539-1.354-1.913-0.939c-0.938,0.286-0.548,0.949-0.167,1.363
			c0.177,0.193,0.111,0.497-0.13,0.607c-0.901,0.396-1.598-0.203-2.09-0.479c-0.585-0.322-1.45-0.276-1.858,0.157
			c-0.483,0.525,1.022,0.819,0.428,1.345c-0.492,0.432-1.152-0.23-1.282-0.415c-0.761-1.013-1.904,0.875-1.003,1.409
			c1.143,0.682-0.447,0.764-0.447,1.114c-0.008,2.983,1.348,4.457,2.583,5.286c1.236,0.829,24.051,2.035,27.209,0.138
			c1.356-0.819,2.211-4.622,1.338-5.377c-0.863-0.756,0.176-0.838-0.121-1.64c-0.315-0.856-0.585-0.147-0.9-0.469
			c-0.456-0.47-0.279-0.747-0.056-1.068c0.231-0.341-0.985-1.437-1.793-1.437c-0.799,0,0.148,0.967-0.363,1.225
			c-0.511,0.258-0.845,0.028-1.394-0.497C43.663,44.493,44.472,44.005,43.849,43.572z"/>
		
			<linearGradient id="XMLID_551_" gradientUnits="userSpaceOnUse" x1="199.0488" y1="-43.7607" x2="199.0488" y2="-32.6655" gradientTransform="matrix(0.7813 0 0 -0.7813 -122.3223 16.9502)">
			<stop  offset="0" style="stop-color:#346A34"/>
			<stop  offset="0.9267" style="stop-color:#679F42"/>
		</linearGradient>
		<path opacity="0.5" fill="url(#XMLID_551_)" enable-background="new    " d="M49.292,52.513l-30.498-0.175l-1.719-5.581
			c0,0,0.734,0.157,1.719,0.553c0.985,0.396,0.976,1.74,1.765,2.026c0.79,0.286,0-3.858,0-3.858s2.563,5.009,3.688,5.12
			c1.123,0.11-0.14-5.516-0.14-5.516s1.728,4.098,2.703,4.163c0.976,0.064,0.623-4.65,1.431-5.351
			c0.799-0.699,2.499,6.327,3.475,6.787c0.975,0.452,0.641-5.581,1.598-6.547c1.096-1.096,0.306,4.825,2.034,5.286
			c1.69,0.46,1.105-4.724,3.019-5.166c1.032-0.24-0.204,4.935,1.246,5.166c2.489,0.396,3.26-3.177,4.607-3.601
			c0.854-0.267-0.335,3.113,0.241,3.545c0.743,0.562,4.44-2.974,4.44-2.974L49.292,52.513z"/>
	</g>
</g>
<ellipse transform="matrix(-0.0767 -0.9971 0.9971 -0.0767 16.9485 43.2791)" fill="#FDD836" cx="28.512" cy="13.792" rx="0.783" ry="1.505"/>
<ellipse transform="matrix(-0.0769 -0.997 0.997 -0.0769 18.1991 46.3494)" fill="#F9BF2C" cx="30.556" cy="14.75" rx="0.737" ry="1.412"/>
<ellipse transform="matrix(-0.9997 -0.0253 0.0253 -0.9997 65.9891 28.4094)" fill="#FDD836" cx="33.174" cy="13.787" rx="1.505" ry="0.783"/>
<ellipse transform="matrix(-0.9997 -0.0251 0.0251 -0.9997 74.7424 30.4366)" fill="#F9BF2C" cx="37.562" cy="14.75" rx="1.412" ry="0.738"/>
<ellipse transform="matrix(-0.051 -0.9987 0.9987 -0.051 20.1468 49.972)" fill="#FDD836" cx="33.815" cy="15.414" rx="0.737" ry="1.411"/>
<path fill="#F9BF2C" d="M26.493,14.743c0.709-0.321,1.422-0.281,1.593,0.089c0.171,0.37-0.266,0.931-0.975,1.252
	c-0.71,0.321-1.422,0.281-1.593-0.089S25.784,15.064,26.493,14.743z"/>
<path fill="#F9A823" d="M25.998,16.521c0.738-0.247,1.444-0.134,1.575,0.251c0.132,0.386-0.361,0.898-1.101,1.146
	c-0.739,0.246-1.444,0.134-1.575-0.251C24.766,17.28,25.258,16.768,25.998,16.521z"/>
<ellipse transform="matrix(-0.9872 -0.1596 0.1596 -0.9872 76.3242 39.0973)" fill="#F9A823" cx="39.732" cy="16.484" rx="1.412" ry="0.738"/>
<path fill="#F9A823" d="M40.628,14.78c0.123-0.388,0.826-0.516,1.57-0.285c0.743,0.231,1.247,0.734,1.125,1.122
	c-0.122,0.389-0.825,0.516-1.57,0.285C41.01,15.671,40.506,15.168,40.628,14.78z"/>
<path fill="#F9A823" d="M23.795,14.778c0.67-0.394,1.385-0.429,1.594-0.078c0.209,0.35-0.167,0.953-0.838,1.347
	c-0.671,0.393-1.385,0.428-1.593,0.078C22.749,15.776,23.124,15.172,23.795,14.778z"/>
<path fill="#F9A823" d="M22.879,16.944c0.671-0.394,1.384-0.429,1.593-0.079c0.209,0.35-0.166,0.954-0.836,1.347
	c-0.672,0.394-1.385,0.429-1.594,0.079C21.833,17.941,22.208,17.338,22.879,16.944z"/>
<ellipse transform="matrix(-0.0769 -0.997 0.997 -0.0769 -3.8034 69.7349)" fill="#FDD836" cx="30.381" cy="36.628" rx="0.737" ry="1.412"/>
<ellipse transform="matrix(-0.0769 -0.997 0.997 -0.0769 -5.0454 71.4581)" fill="#F9BF2C" cx="30.558" cy="38.065" rx="0.737" ry="1.411"/>
<ellipse transform="matrix(-0.9997 -0.0251 0.0251 -0.9997 68.5706 74.11)" fill="#FDD836" cx="34.75" cy="36.625" rx="1.412" ry="0.736"/>
<ellipse transform="matrix(-0.9997 -0.0252 0.0252 -0.9997 74.1641 77.0524)" fill="#F9BF2C" cx="37.568" cy="38.058" rx="1.412" ry="0.736"/>
<ellipse transform="matrix(-0.0514 -0.9987 0.9987 -0.0514 -3.1257 74.4875)" fill="#FDD836" cx="33.814" cy="38.728" rx="0.737" ry="1.412"/>
<ellipse transform="matrix(-0.9897 -0.1432 0.1432 -0.9897 69.7539 78.2719)" fill="#FDD836" cx="37.693" cy="36.626" rx="1.412" ry="0.737"/>
<path fill="#F9BF2C" d="M26.494,38.058c0.709-0.321,1.423-0.281,1.594,0.089c0.171,0.37-0.266,0.93-0.976,1.252
	c-0.71,0.321-1.422,0.281-1.593-0.089C25.348,38.939,25.785,38.379,26.494,38.058z"/>
<path fill="#F9A823" d="M26,39.834c0.739-0.246,1.444-0.134,1.575,0.252c0.132,0.385-0.361,0.898-1.1,1.145
	c-0.74,0.247-1.445,0.134-1.576-0.251S25.261,40.082,26,39.834z"/>
<ellipse transform="matrix(-0.9871 -0.1598 0.1598 -0.9871 72.6063 85.4256)" fill="#F9A823" cx="39.739" cy="39.793" rx="1.411" ry="0.736"/>
<path fill="#F9A823" d="M42.89,40.371c0.149-0.379,0.859-0.457,1.585-0.175c0.726,0.282,1.193,0.817,1.044,1.196
	c-0.15,0.378-0.86,0.457-1.587,0.175C43.207,41.285,42.739,40.749,42.89,40.371z"/>
<path fill="#F9A823" d="M40.635,38.091c0.123-0.388,0.825-0.516,1.57-0.285c0.744,0.231,1.248,0.733,1.125,1.121
	c-0.123,0.388-0.826,0.515-1.57,0.285C41.017,38.981,40.512,38.479,40.635,38.091z"/>
<path fill="#F9A823" d="M23.799,38.093c0.671-0.394,1.385-0.428,1.594-0.078c0.209,0.349-0.166,0.953-0.837,1.347
	c-0.672,0.394-1.385,0.429-1.594,0.078C22.753,39.09,23.129,38.487,23.799,38.093z"/>
<path fill="#F9A823" d="M22.523,40.719c0.671-0.394,1.385-0.429,1.594-0.079c0.208,0.351-0.166,0.954-0.837,1.347
	c-0.671,0.394-1.385,0.429-1.593,0.079C21.478,41.717,21.851,41.113,22.523,40.719z"/>
<linearGradient id="XMLID_552_" gradientUnits="userSpaceOnUse" x1="281.2246" y1="-91.9287" x2="281.2246" y2="-53.9526" gradientTransform="matrix(0.7813 0 0 -0.7813 -122.3223 16.9502)">
	<stop  offset="0" style="stop-color:#8D401E"/>
	<stop  offset="0.6486" style="stop-color:#BB5B27"/>
</linearGradient>
<path fill="url(#XMLID_552_)" d="M111.097,65.331c-0.252-2.073-2.267-1.879-2.406-1.842c-0.345-0.792-1.423-0.884-2.342-0.884
	c-0.438,0-0.956,0.129-1.431,0.351c-0.512,0.24-1.086,0.24-1.597,0c-0.475-0.221-0.996-0.351-1.432-0.351s-0.957,0.129-1.432,0.351
	c-0.511,0.24-1.085,0.24-1.597,0c-0.475-0.221-0.993-0.351-1.431-0.351c-0.437,0-0.957,0.129-1.429,0.351
	c-0.514,0.24-1.089,0.24-1.6,0c-0.474-0.221-0.994-0.351-1.432-0.351c-0.436,0-0.955,0.129-1.429,0.351
	c-0.511,0.24-1.088,0.24-1.599,0c-0.475-0.221-0.994-0.351-1.43-0.351c-0.93,0-2.192,0.129-2.536,0.931
	c-0.148-0.037-1.672,0.313-2.155,1.629c-0.605,0.802-0.967,1.797-0.967,2.883v19.392c0,2.671,2.184,4.835,4.877,4.835h19.304
	c2.695,0,4.877-2.164,4.877-4.835v-19.41C111.931,67.034,111.626,66.104,111.097,65.331z"/>
<g opacity="0.2">
	<path fill="#434343" d="M91.718,71.628c-0.475,0.13-1.923,0.628-2.378,0.563c-1.738-0.258-3.158-1.483-3.678-2.44
		c-0.438-0.81,1.476-0.911,1.624-0.653c0.799,1.437,3.262,0.35,4.319,0.432C93.381,69.667,94.69,70.8,91.718,71.628z"/>
</g>
<path fill="#F47C20" d="M92.935,70.45c0,0-0.353,0.441-2.536,0.424l-5.397-4.346c-0.391-0.332,0.371-0.922,0.846-1.18l0.298-0.156
	c0.24-0.129,0.538-0.167,0.807-0.093l6.96,1.823c0.528,0.138,0.788,0.617,0.556,1.023l-1.226,2.209
	C93.177,70.275,93.065,70.376,92.935,70.45z"/>
<path fill="#F37021" d="M90.223,70.846l-3.921-0.865c-0.213-0.045-0.381-0.184-0.444-0.35l-1.088-3.103
	c-0.141-0.396,0.343-0.756,0.826-0.618l6.317,1.833c0.335,0.102,0.502,0.396,0.38,0.663l-0.955,1.989
	C91.18,70.755,90.686,70.946,90.223,70.846z"/>
<g opacity="0.2">
	<path fill="#434343" d="M92.34,78.185c0.447,0.175,0.362,0.93,2.704,0.811c2.341-0.12,4.469-0.737,5.127-1.943
		c0.438-0.811-1.477-0.91-1.625-0.652c-0.8,1.435-3.262,0.349-4.319,0.433C92.443,76.979,91.681,77.936,92.34,78.185z"/>
</g>
<path fill="#F47C20" d="M93.78,78.119l5.5-1.362l0.371-2.016l-1.58-1.253c-0.203-0.165-0.446-0.257-0.705-0.285l-4.161-0.387
	c-0.493,0.156-1.319,1.216-1.107,1.686l0.279,2.872L93.78,78.119z"/>
<path fill="#F37021" d="M94.495,78.093l4.348-0.912c0.307-0.063,0.558-0.267,0.688-0.552l0.353-0.792
	c0.27-0.607-0.14-1.299-0.81-1.354l-4.589-0.405c-0.547-0.046-1.03,0.368-1.06,0.912l-0.109,2.108
	C93.288,77.734,93.872,78.231,94.495,78.093L94.495,78.093z"/>
<g opacity="0.2">
	<path fill="#434343" d="M103.627,86.942c0.445,0.174,0.361,0.93,2.703,0.81c2.341-0.119,4.468-0.736,5.128-1.942
		c0.436-0.811-1.478-0.912-1.626-0.655c-0.799,1.438-3.26,0.352-4.319,0.434C103.729,85.727,102.976,86.684,103.627,86.942z"/>
</g>
<path fill="#F47C20" d="M105.065,86.877l5.501-1.362l0.371-2.017l-1.58-1.252c-0.203-0.166-0.444-0.257-0.706-0.286l-4.699,0.709
	c-0.492,0.156-1.319,1.216-1.105,1.685l0.807,1.778L105.065,86.877z"/>
<path fill="#F37021" d="M105.791,86.85l4.348-0.912c0.307-0.064,0.558-0.266,0.687-0.551l0.354-0.793
	c0.269-0.608-0.14-1.298-0.809-1.354l-5.239,0.341c-0.549-0.047-1.031,0.368-1.06,0.911l0.529,1.363
	C104.583,86.491,105.16,86.988,105.791,86.85z"/>
<g opacity="0.2">
	<path fill="#434343" d="M94.395,90.579c-0.447,0.175-0.363,0.93-2.704,0.811c-2.342-0.12-4.468-0.737-5.13-1.943
		c-0.435-0.811,1.479-0.911,1.627-0.653c0.799,1.436,3.26,0.35,4.319,0.432C94.29,89.363,95.044,90.321,94.395,90.579z"/>
</g>
<path fill="#F47C20" d="M92.954,90.505l-5.501-1.362l-0.37-2.017l1.579-1.253c0.204-0.165,0.446-0.257,0.706-0.285l4.699,0.709
	c0.494,0.157,1.319,1.217,1.105,1.686l-0.808,1.777L92.954,90.505z"/>
<path fill="#F37021" d="M92.229,90.487l-4.348-0.912c-0.307-0.064-0.558-0.267-0.688-0.552L86.84,88.23
	c-0.269-0.606,0.14-1.298,0.809-1.354l5.239,0.341c0.549-0.045,1.031,0.368,1.06,0.912l-0.529,1.363
	C93.437,90.127,92.859,90.615,92.229,90.487z"/>
<path fill="#FCB316" d="M87.872,71.168c0.213,0.415,0.835,0.708,0.835,0.708l2.369-0.46c0,0,0.262-0.211,0.371-0.34
	c0.401-0.471-0.611-2.872-1.903-2.293C88.252,69.364,87.49,70.422,87.872,71.168z"/>
<path fill="#F78F1E" d="M88.76,70.55c0.466-0.133,0.883-0.097,0.933,0.078c0.053,0.176-0.282,0.427-0.745,0.559
	s-0.88,0.098-0.931-0.078C87.965,70.932,88.3,70.683,88.76,70.55z"/>
<path fill="#FCB316" d="M100.71,77.476c-0.743-0.663-1.458-0.312-2.211,0.111c-0.446,0.247-0.893,0.682-1.086,1.261
	c-0.195,0.581,1.616,2.469,2.609,1.454C101.016,79.291,101.343,78.028,100.71,77.476z"/>
<path fill="#F78F1E" d="M99.691,77.836c0.385-0.29,0.786-0.404,0.898-0.259c0.11,0.145-0.11,0.498-0.492,0.787
	c-0.384,0.29-0.785,0.405-0.898,0.261C99.089,78.48,99.309,78.127,99.691,77.836z"/>
<path fill="#FCB316" d="M104.435,90.615c0.335,0.93,1.124,0.978,1.987,0.967c0.513-0.009,1.116-0.165,1.57-0.579
	c0.456-0.415-0.214-2.929-1.57-2.523C105.058,88.885,104.156,89.824,104.435,90.615z"/>
<path fill="#F78F1E" d="M105.398,90.13c0.478-0.068,0.887,0.023,0.914,0.202c0.024,0.183-0.339,0.386-0.815,0.454
	c-0.479,0.069-0.888-0.021-0.914-0.202C104.557,90.402,104.922,90.198,105.398,90.13z"/>
<path fill="#FCB316" d="M83.005,85.672c0.333,0.929,1.123,0.975,1.987,0.966c0.511-0.01,1.114-0.165,1.568-0.581
	c0.457-0.413-0.212-2.928-1.568-2.522C83.627,83.93,82.726,84.879,83.005,85.672z"/>
<ellipse transform="matrix(-0.1429 -0.9897 0.9897 -0.1429 11.3837 180.8858)" fill="#F78F1E" cx="84.017" cy="85.514" rx="0.332" ry="0.873"/>
<ellipse opacity="0.2" fill="#434343" enable-background="new    " cx="107.474" cy="68.581" rx="1.477" ry="0.783"/>
<radialGradient id="XMLID_553_" cx="266.3125" cy="-51.5718" r="1.5899" gradientTransform="matrix(0.9289 0 0 -0.9208 -140.178 19.288)" gradientUnits="userSpaceOnUse">
	<stop  offset="0.2043" style="stop-color:#8BC249"/>
	<stop  offset="1" style="stop-color:#679F42"/>
</radialGradient>
<ellipse fill="url(#XMLID_553_)" cx="107.454" cy="67.07" rx="1.477" ry="1.464"/>
<path opacity="0.2" fill="#434343" enable-background="new    " d="M88.196,77.181c0.815,0,1.479,0.352,1.479,0.783
	c0,0.433-0.663,0.782-1.479,0.782c-0.813,0-1.477-0.35-1.477-0.782C86.72,77.532,87.383,77.181,88.196,77.181z"/>
<radialGradient id="XMLID_554_" cx="245.5654" cy="-61.7578" r="1.5911" gradientTransform="matrix(0.9289 0 0 -0.9208 -140.178 19.288)" gradientUnits="userSpaceOnUse">
	<stop  offset="0.2043" style="stop-color:#8BC249"/>
	<stop  offset="1" style="stop-color:#679F42"/>
</radialGradient>
<ellipse fill="url(#XMLID_554_)" cx="88.179" cy="76.445" rx="1.477" ry="1.464"/>
<ellipse opacity="0.2" fill="#434343" enable-background="new    " cx="104.565" cy="80.11" rx="1.477" ry="0.783"/>
<radialGradient id="XMLID_555_" cx="263.1914" cy="-64.0923" r="1.5905" gradientTransform="matrix(0.9289 0 0 -0.9208 -140.178 19.288)" gradientUnits="userSpaceOnUse">
	<stop  offset="0.2043" style="stop-color:#8BC249"/>
	<stop  offset="1" style="stop-color:#679F42"/>
</radialGradient>
<ellipse fill="url(#XMLID_555_)" cx="104.547" cy="78.599" rx="1.477" ry="1.463"/>
<ellipse opacity="0.2" fill="#434343" enable-background="new    " cx="99.122" cy="90.054" rx="1.476" ry="0.782"/>
<radialGradient id="XMLID_556_" cx="257.3223" cy="-74.8931" r="1.5909" gradientTransform="matrix(0.9289 0 0 -0.9208 -140.178 19.288)" gradientUnits="userSpaceOnUse">
	<stop  offset="0.2043" style="stop-color:#8BC249"/>
	<stop  offset="1" style="stop-color:#679F42"/>
</radialGradient>
<ellipse fill="url(#XMLID_556_)" cx="99.103" cy="88.544" rx="1.478" ry="1.465"/>
<path opacity="0.2" fill="#434343" enable-background="new    " d="M107.669,73.949c0,0.617-0.734,0.894-2.62,0.69
	c-1.339-0.138-1.812,0.036-1.812-0.58c0-0.618-0.048-2.164,1.867-2.413C107.018,71.407,107.669,73.028,107.669,73.949z"/>
<path fill="#AF5C2B" d="M105.216,73.01c1.086,0.036,2.219,1.141,2.266,1.068c0.112-0.166-0.083-1.805-0.371-1.979l-1.877-1.105
	c-0.223-0.129-0.511-0.063-0.659,0.157l-1.124,1.5l0.047,1.547C104.083,74.345,104.128,72.973,105.216,73.01z"/>
<path fill="#8B4A22" d="M104.89,74.216c0.14,0.047,0.706,0.23,1.06,0.203c0.521-0.046,0.585-0.222,1.17-0.176
	c0.55,0.046,0.399-0.386,0.02-0.607l-1.878-1.104c-0.222-0.129-0.511-0.064-0.659,0.156l-1.124,1.502
	C104.286,74.483,104.443,74.06,104.89,74.216z"/>
<path fill="#C56E39" d="M104.984,72.385h-0.02c-0.14,0-0.242-0.111-0.242-0.239v-0.903c0-0.138,0.111-0.239,0.242-0.239h0.02
	c0.138,0,0.24,0.11,0.24,0.239v0.903C105.233,72.273,105.122,72.385,104.984,72.385z"/>
<path opacity="0.2" fill="#434343" enable-background="new    " d="M100.757,70.432c0,0.617-0.734,0.894-2.62,0.69
	c-1.338-0.138-1.812,0.037-1.812-0.579c0-0.618-0.047-2.164,1.866-2.413C100.106,67.891,100.757,69.512,100.757,70.432z"/>
<path fill="#AF5C2B" d="M98.304,69.492c1.089,0.036,2.221,1.142,2.267,1.068c0.111-0.165-0.085-1.805-0.371-1.98l-1.876-1.104
	c-0.223-0.131-0.511-0.065-0.661,0.155l-1.122,1.502l0.045,1.547C97.171,70.828,97.218,69.456,98.304,69.492z"/>
<path fill="#8B4A22" d="M97.979,70.698c0.14,0.046,0.706,0.231,1.058,0.203c0.52-0.047,0.586-0.221,1.172-0.175
	c0.548,0.046,0.399-0.387,0.018-0.607l-1.876-1.105c-0.223-0.128-0.511-0.064-0.66,0.157l-1.123,1.5
	C97.385,70.966,97.533,70.543,97.979,70.698z"/>
<path fill="#C56E39" d="M98.081,68.866h-0.018c-0.14,0-0.243-0.11-0.243-0.239v-0.902c0-0.139,0.112-0.24,0.243-0.24h0.018
	c0.14,0,0.242,0.111,0.242,0.24v0.902C98.323,68.764,98.211,68.866,98.081,68.866z"/>
<path opacity="0.2" fill="#434343" enable-background="new    " d="M93.353,82.476c0,0.617-0.733,0.893-2.619,0.691
	c-1.337-0.138-1.813,0.037-1.813-0.58c0-0.618-0.047-2.164,1.868-2.413C92.702,79.944,93.353,81.564,93.353,82.476z"/>
<path fill="#AF5C2B" d="M90.892,81.537c1.086,0.036,2.219,1.142,2.267,1.067c0.111-0.166-0.084-1.805-0.371-1.979l-1.878-1.104
	c-0.224-0.131-0.511-0.065-0.659,0.155l-1.124,1.502l0.047,1.547C89.768,82.872,89.803,81.5,90.892,81.537z"/>
<path fill="#8B4A22" d="M90.576,82.743c0.138,0.046,0.706,0.23,1.058,0.203c0.52-0.048,0.587-0.222,1.17-0.176
	c0.549,0.046,0.401-0.387,0.019-0.607l-1.875-1.105c-0.224-0.129-0.511-0.063-0.661,0.156l-1.122,1.501
	C89.971,83.01,90.13,82.587,90.576,82.743z"/>
<path fill="#C56E39" d="M90.668,80.919h-0.019c-0.141,0-0.241-0.11-0.241-0.238v-0.903c0-0.138,0.112-0.24,0.241-0.24h0.019
	c0.141,0,0.241,0.112,0.241,0.24v0.903C90.909,80.809,90.809,80.919,90.668,80.919z"/>
<g>
	<defs>
		<path id="XMLID_472_" d="M110.036,51.169H61.35c-2.99,0-5.405-2.413-5.405-5.396V6.546c0-2.984,2.424-5.396,5.405-5.396h57.697
			c2.991,0,5.407,2.412,5.407,5.396V44.52c0,0-6.336,3.324-9.466,4.89c-1.087,0.543-0.884-0.074-1.135,0.184
			C112.888,50.561,111.531,51.169,110.036,51.169z"/>
	</defs>
	<clipPath id="XMLID_557_">
		<use xlink:href="#XMLID_472_" />
	</clipPath>
	<path opacity="0.2" clip-path="url(#XMLID_557_)" fill="#212121" enable-background="new    " d="M105.467,33.351
		c0-4.255-5.759-7.698-12.875-7.698c-7.108,0-12.876,3.443-12.876,7.698c0,1.538,0.762,2.965,2.062,4.171
		c-2.174,1.897-3.52,4.457-3.52,7.274c0,5.856,5.758,10.607,12.874,10.607c7.107,0,12.876-4.751,12.876-10.607
		c0-2.238-0.846-4.309-2.276-6.022C104.035,37.384,105.467,35.469,105.467,33.351z"/>
</g>
<g>
	<defs>
		<path id="XMLID_474_" d="M110.036,51.169H61.35c-2.99,0-5.405-2.413-5.405-5.396V6.546c0-2.984,2.424-5.396,5.405-5.396h57.697
			c2.991,0,5.407,2.412,5.407,5.396V44.52c0,0-6.336,3.324-9.466,4.89c-1.087,0.543-0.884-0.074-1.135,0.184
			C112.888,50.561,111.531,51.169,110.036,51.169z"/>
	</defs>
	<clipPath id="XMLID_558_">
		<use xlink:href="#XMLID_474_" />
	</clipPath>
	<g clip-path="url(#XMLID_558_)">
		<ellipse fill="#1E5F30" cx="91.653" cy="46.113" rx="11.045" ry="9.475"/>
		<ellipse fill="#4D803B" cx="91.653" cy="45.1" rx="11.045" ry="9.475"/>
		<ellipse fill="#B7CE7A" cx="91.653" cy="44.87" rx="9.095" ry="7.799"/>
		<ellipse fill="#B3CA62" cx="91.653" cy="44.87" rx="6.494" ry="5.571"/>
	</g>
</g>
<g>
	<defs>
		<path id="XMLID_476_" d="M127.124,38.459L86.122,64.475c-2.518,1.598-5.866,0.857-7.488-1.656L57.3,29.783
			c-1.622-2.513-0.893-5.84,1.618-7.434l48.594-30.832c2.518-1.598,5.865-0.856,7.488,1.655l20.652,31.982
			c0,0-3.527,6.185-5.313,9.176c-0.62,1.038-0.783,0.41-0.854,0.761C129.197,36.423,128.387,37.658,127.124,38.459L127.124,38.459z"
			/>
	</defs>
	<clipPath id="XMLID_559_">
		<use xlink:href="#XMLID_476_" />
	</clipPath>
	<path clip-path="url(#XMLID_559_)" fill="#568B3E" d="M93.299,10.637c3.591-2.278,8.014-1.785,9.878,1.102
		c1.864,2.887,0.464,7.074-3.126,9.353c-3.591,2.277-8.015,1.785-9.878-1.103C88.308,17.102,89.709,12.916,93.299,10.637z"/>
</g>
<g>
	<defs>
		<path id="XMLID_478_" d="M110.435,28.11L94.589,73.74c-0.974,2.804-4.062,4.281-6.907,3.31L50.266,64.281
			c-2.847-0.97-4.358-4.028-3.387-6.823l18.78-54.074c0.974-2.803,4.061-4.282,6.907-3.311l36.221,12.361
			c0,0,1.108,7.02,1.584,10.463c0.163,1.195-0.358,0.803-0.194,1.122C110.784,25.24,110.923,26.708,110.435,28.11z"/>
	</defs>
	<clipPath id="XMLID_560_">
		<use xlink:href="#XMLID_478_" />
	</clipPath>
	<path opacity="0.2" clip-path="url(#XMLID_560_)" fill="#212121" enable-background="new    " d="M83.437,35.783
		c1.025-2.958,6.555-3.752,12.347-1.776s9.656,5.976,8.627,8.933c-1.027,2.958-6.556,3.752-12.348,1.776
		C86.271,42.739,82.41,38.74,83.437,35.783z"/>
</g>
<g>
	<defs>
		<path id="XMLID_480_" d="M110.036,51.169H61.35c-2.99,0-5.405-2.413-5.405-5.396V6.546c0-2.984,2.424-5.396,5.405-5.396h57.697
			c2.991,0,5.407,2.412,5.407,5.396V44.52c0,0-6.336,3.324-9.466,4.89c-1.087,0.543-0.884-0.074-1.135,0.184
			C112.888,50.561,111.531,51.169,110.036,51.169z"/>
	</defs>
	<clipPath id="XMLID_561_">
		<use xlink:href="#XMLID_480_" />
	</clipPath>
	<g clip-path="url(#XMLID_561_)">
		<path fill="#1E5F30" d="M85.285,12.68c4.515-1.165,9.418,2.626,10.951,8.468c1.533,5.841-0.879,11.521-5.393,12.687
			c-4.515,1.165-9.415-2.627-10.951-8.468C78.358,19.525,80.773,13.846,85.285,12.68z"/>
		<path fill="#568B3E" d="M86.16,12.45c4.513-1.166,9.416,2.625,10.951,8.467c1.534,5.842-0.881,11.521-5.394,12.687
			c-4.514,1.166-9.416-2.626-10.951-8.468C79.232,19.295,81.647,13.615,86.16,12.45z"/>
		<path fill="#CEE298" d="M86.847,14.266c3.713-0.958,7.746,2.163,9.009,6.97c1.264,4.808-0.721,9.483-4.436,10.441
			c-3.714,0.959-7.748-2.161-9.013-6.969C81.146,19.899,83.132,15.225,86.847,14.266z"/>
		<path fill="#C4DC72" d="M87.499,16.752c2.651-0.685,5.53,1.546,6.434,4.98c0.901,3.436-0.515,6.775-3.166,7.459
			c-2.652,0.684-5.532-1.546-6.434-4.981C83.43,20.776,84.849,17.436,87.499,16.752z"/>
	</g>
</g>
<g>
	<defs>
		<path id="XMLID_482_" d="M110.036,51.169H61.35c-2.99,0-5.405-2.413-5.405-5.396V6.546c0-2.984,2.424-5.396,5.405-5.396h57.697
			c2.991,0,5.407,2.412,5.407,5.396V44.52c0,0-6.336,3.324-9.466,4.89c-1.087,0.543-0.884-0.074-1.135,0.184
			C112.888,50.561,111.531,51.169,110.036,51.169z"/>
	</defs>
	<clipPath id="XMLID_562_">
		<use xlink:href="#XMLID_482_" />
	</clipPath>
	<g clip-path="url(#XMLID_562_)">
		<path fill="#1E5F30" d="M89.814,15.317c1.821-4.195,7.476-5.812,12.633-3.612c5.154,2.2,7.857,7.383,6.035,11.578
			c-1.821,4.194-7.477,5.812-12.634,3.612C90.695,24.695,87.992,19.511,89.814,15.317z"/>
		<path fill="#568B3E" d="M90.158,14.495c1.821-4.195,7.477-5.812,12.633-3.611c5.154,2.2,7.857,7.383,6.036,11.578
			s-7.477,5.812-12.634,3.612C91.039,23.874,88.336,18.69,90.158,14.495z"/>
		<path fill="#CEE298" d="M91.876,15.012c1.5-3.452,6.155-4.781,10.403-2.969c4.245,1.811,6.472,6.078,4.973,9.53
			c-1.5,3.452-6.156,4.781-10.401,2.969C92.604,22.73,90.379,18.463,91.876,15.012z"/>
		<path fill="#C4DC72" d="M93.601,15.748c1.163-2.677,4.775-3.707,8.067-2.302c3.295,1.406,5.022,4.715,3.861,7.392
			c-1.163,2.677-4.775,3.707-8.071,2.301C94.166,21.732,92.437,18.424,93.601,15.748z"/>
	</g>
</g>
<g>
	<defs>
		<path id="XMLID_484_" d="M110.036,51.169H61.35c-2.99,0-5.405-2.413-5.405-5.396V6.546c0-2.984,2.424-5.396,5.405-5.396h57.697
			c2.991,0,5.407,2.412,5.407,5.396V44.52c0,0-6.336,3.324-9.466,4.89c-1.087,0.543-0.884-0.074-1.135,0.184
			C112.888,50.561,111.531,51.169,110.036,51.169z"/>
	</defs>
	<clipPath id="XMLID_563_">
		<use xlink:href="#XMLID_484_" />
	</clipPath>
	<g clip-path="url(#XMLID_563_)">
		<path fill="#1E5F30" d="M103.258,24.014c5.51-1.056,10.688,1.727,11.566,6.215c0.875,4.489-2.883,8.984-8.394,10.041
			c-5.511,1.056-10.689-1.726-11.564-6.214C93.99,29.566,97.747,25.07,103.258,24.014z"/>
		<path fill="#4D803B" d="M103.092,22.615c5.511-1.056,10.687,1.726,11.562,6.214c0.877,4.488-2.881,8.983-8.391,10.041
			c-5.511,1.056-10.689-1.727-11.565-6.214C93.821,28.167,97.578,23.672,103.092,22.615z"/>
		<path fill="#B7CE7A" d="M103.333,23.859c4.535-0.869,8.793,1.421,9.515,5.116c0.72,3.694-2.369,7.395-6.902,8.264
			c-4.534,0.869-8.794-1.421-9.516-5.116C95.709,28.429,98.801,24.729,103.333,23.859z"/>
		<path fill="#B3CA62" d="M103.563,25.044c3.739-0.717,7.249,1.167,7.844,4.207c0.593,3.042-1.955,6.087-5.695,6.803
			c-3.736,0.717-7.247-1.167-7.839-4.208C97.277,28.807,99.827,25.76,103.563,25.044z"/>
	</g>
</g>
<g>
	<defs>
		<path id="XMLID_486_" d="M110.036,51.169H61.35c-2.99,0-5.405-2.413-5.405-5.396V6.546c0-2.984,2.424-5.396,5.405-5.396h57.697
			c2.991,0,5.407,2.412,5.407,5.396V44.52c0,0-6.336,3.324-9.466,4.89c-1.087,0.543-0.884-0.074-1.135,0.184
			C112.888,50.561,111.531,51.169,110.036,51.169z"/>
	</defs>
	<clipPath id="XMLID_564_">
		<use xlink:href="#XMLID_486_" />
	</clipPath>
	
		<ellipse opacity="0.2" clip-path="url(#XMLID_564_)" fill="#212121" enable-background="new    " cx="69.339" cy="29.373" rx="12.876" ry="7.108"/>
</g>
<g>
	<defs>
		<path id="XMLID_488_" d="M110.036,51.169H61.35c-2.99,0-5.405-2.413-5.405-5.396V6.546c0-2.984,2.424-5.396,5.405-5.396h57.697
			c2.991,0,5.407,2.412,5.407,5.396V44.52c0,0-6.336,3.324-9.466,4.89c-1.087,0.543-0.884-0.074-1.135,0.184
			C112.888,50.561,111.531,51.169,110.036,51.169z"/>
	</defs>
	<clipPath id="XMLID_565_">
		<use xlink:href="#XMLID_488_" />
	</clipPath>
	<g clip-path="url(#XMLID_565_)">
		<path fill="#1E5F30" d="M81.737,29.361c1.54-3.633,7.354-4.675,12.98-2.327c5.626,2.348,8.94,7.194,7.397,10.828
			c-1.543,3.632-7.354,4.674-12.983,2.326C83.505,37.841,80.194,32.994,81.737,29.361z"/>
		<path fill="#568B3E" d="M82.096,27.631c1.543-3.632,7.354-4.675,12.981-2.328c5.627,2.348,8.938,7.195,7.396,10.829
			c-1.544,3.632-7.355,4.674-12.982,2.327C83.865,36.111,80.554,31.264,82.096,27.631z"/>
		<path fill="#F9EBBB" d="M83.956,28.224c1.271-2.991,6.059-3.848,10.69-1.914c4.636,1.933,7.361,5.924,6.092,8.915
			c-1.27,2.991-6.055,3.847-10.688,1.915C85.415,35.206,82.688,31.215,83.956,28.224z"/>
		<path fill="#DEE67C" d="M85.566,28.896c1.028-2.418,4.896-3.113,8.641-1.55c3.747,1.563,5.949,4.789,4.922,7.208
			s-4.895,3.113-8.639,1.551C86.743,34.542,84.54,31.314,85.566,28.896z"/>
	</g>
</g>
<g>
	<defs>
		<path id="XMLID_490_" d="M110.036,51.169H61.35c-2.99,0-5.405-2.413-5.405-5.396V6.546c0-2.984,2.424-5.396,5.405-5.396h57.697
			c2.991,0,5.407,2.412,5.407,5.396V44.52c0,0-6.336,3.324-9.466,4.89c-1.087,0.543-0.884-0.074-1.135,0.184
			C112.888,50.561,111.531,51.169,110.036,51.169z"/>
	</defs>
	<clipPath id="XMLID_566_">
		<use xlink:href="#XMLID_490_" />
	</clipPath>
	<g clip-path="url(#XMLID_566_)">
		<path fill="#1E5F30" d="M103.195,38.48c5.187-0.569,9.693,1.69,10.07,5.047c0.374,3.355-3.526,6.538-8.713,7.107
			c-5.185,0.569-9.693-1.691-10.069-5.046C94.11,42.231,98.011,39.049,103.195,38.48z"/>
		<path opacity="0.2" fill="#212121" enable-background="new    " d="M103.409,39.593c5.185-0.568,9.693,1.691,10.069,5.046
			c0.373,3.357-3.526,6.538-8.711,7.108c-5.187,0.568-9.693-1.691-10.071-5.047C94.322,43.345,98.223,40.162,103.409,39.593z"/>
		<path fill="#568B3E" d="M103.012,37.458c5.185-0.569,9.693,1.691,10.066,5.046c0.374,3.356-3.525,6.539-8.71,7.107
			c-5.188,0.569-9.693-1.69-10.069-5.046C93.924,41.209,97.824,38.026,103.012,37.458z"/>
		<path fill="#F9EBBB" d="M103.121,38.389c4.27-0.469,7.978,1.39,8.286,4.15c0.309,2.759-2.904,5.375-7.171,5.844
			c-4.267,0.469-7.977-1.389-8.285-4.148S98.851,38.858,103.121,38.389z"/>
		<path fill="#DEE67C" d="M103.227,39.341c3.453-0.378,6.454,1.125,6.704,3.359c0.247,2.234-2.349,4.353-5.801,4.731
			s-6.452-1.126-6.701-3.359C97.179,41.837,99.775,39.72,103.227,39.341z"/>
	</g>
</g>
<g>
	<defs>
		<path id="XMLID_492_" d="M110.036,51.169H61.35c-2.99,0-5.405-2.413-5.405-5.396V6.546c0-2.984,2.424-5.396,5.405-5.396h57.697
			c2.991,0,5.407,2.412,5.407,5.396V44.52c0,0-6.336,3.324-9.466,4.89c-1.087,0.543-0.884-0.074-1.135,0.184
			C112.888,50.561,111.531,51.169,110.036,51.169z"/>
	</defs>
	<clipPath id="XMLID_567_">
		<use xlink:href="#XMLID_492_" />
	</clipPath>
	<g clip-path="url(#XMLID_567_)">
		<path fill="#CCB795" d="M59.632,29.253c-3.334-3.776-3.271-7.983-3.344-9.19c-0.26-4.291,2.118-4.585,7.097-6.575
			c6.382-2.55,19.954-3.701,20.355,2.202c0.547,8.121-2.927,13.812-10.563,16.768C67.492,34.649,62.65,32.66,59.632,29.253z"/>
		
			<radialGradient id="XMLID_568_" cx="219.748" cy="7.623" r="26.368" gradientTransform="matrix(0.9289 0 0 -0.9266 -140.178 21.1368)" gradientUnits="userSpaceOnUse">
			<stop  offset="0.4485" style="stop-color:#FFF3E1"/>
			<stop  offset="1" style="stop-color:#FFE0B2"/>
		</radialGradient>
		<path fill="url(#XMLID_568_)" d="M57.151,23.931c-2.75-5.248-0.139-11.409,6.243-13.959c6.381-2.551,17.641-1.519,19.852,3.978
			c2.21,5.498-5.082,14.125-11.741,15.801C64.397,31.528,59.632,28.664,57.151,23.931z"/>
		
			<radialGradient id="XMLID_569_" cx="223.9844" cy="1.4834" r="7.5092" gradientTransform="matrix(0.9289 0 0 -0.9266 -140.178 21.1368)" gradientUnits="userSpaceOnUse">
			<stop  offset="0" style="stop-color:#F36E21"/>
			<stop  offset="1" style="stop-color:#FAAA43"/>
		</radialGradient>
		<path fill="url(#XMLID_569_)" d="M61.081,21.767c-1.356-3.37-0.083-6.998,3.828-8.564c3.912-1.565,8.305-0.57,9.661,2.8
			c1.355,3.37-0.771,7.762-4.691,9.328C65.967,26.896,62.428,25.137,61.081,21.767z"/>
	</g>
</g>
<g>
	<defs>
		<path id="XMLID_496_" d="M110.036,51.169H61.35c-2.99,0-5.405-2.413-5.405-5.396V6.546c0-2.984,2.424-5.396,5.405-5.396h57.697
			c2.991,0,5.407,2.412,5.407,5.396V44.52c0,0-6.336,3.324-9.466,4.89c-1.087,0.543-0.884-0.074-1.135,0.184
			C112.888,50.561,111.531,51.169,110.036,51.169z"/>
	</defs>
	<clipPath id="XMLID_570_">
		<use xlink:href="#XMLID_496_" />
	</clipPath>
	
		<ellipse opacity="0.2" clip-path="url(#XMLID_570_)" fill="#212121" enable-background="new    " cx="69.339" cy="49.962" rx="12.876" ry="7.109"/>
</g>
<g>
	<defs>
		<path id="XMLID_498_" d="M110.036,51.169H61.35c-2.99,0-5.405-2.413-5.405-5.396V6.546c0-2.984,2.424-5.396,5.405-5.396h57.697
			c2.991,0,5.407,2.412,5.407,5.396V44.52c0,0-6.336,3.324-9.466,4.89c-1.087,0.543-0.884-0.074-1.135,0.184
			C112.888,50.561,111.531,51.169,110.036,51.169z"/>
	</defs>
	<clipPath id="XMLID_571_">
		<use xlink:href="#XMLID_498_" />
	</clipPath>
	<g clip-path="url(#XMLID_571_)">
		<path fill="#CCB795" d="M59.632,50.542c-3.334-3.775-3.271-7.984-3.344-9.19c-0.26-4.291,2.118-4.585,7.097-6.575
			c6.382-2.551,19.954-3.702,20.355,2.201c0.547,8.121-2.927,13.812-10.563,16.767C67.492,55.938,62.65,53.95,59.632,50.542z"/>
		
			<radialGradient id="XMLID_572_" cx="219.748" cy="-15.3525" r="26.3677" gradientTransform="matrix(0.9289 0 0 -0.9266 -140.178 21.1368)" gradientUnits="userSpaceOnUse">
			<stop  offset="0.4485" style="stop-color:#FFF3E1"/>
			<stop  offset="1" style="stop-color:#FFE0B2"/>
		</radialGradient>
		<path fill="url(#XMLID_572_)" d="M57.151,45.22c-2.75-5.249-0.139-11.409,6.243-13.959c6.381-2.55,17.641-1.519,19.852,3.979
			c2.21,5.497-5.082,14.125-11.741,15.801C64.397,52.817,59.632,49.962,57.151,45.22z"/>
		
			<radialGradient id="XMLID_573_" cx="223.9844" cy="-21.4941" r="7.5097" gradientTransform="matrix(0.9289 0 0 -0.9266 -140.178 21.1368)" gradientUnits="userSpaceOnUse">
			<stop  offset="0" style="stop-color:#F36E21"/>
			<stop  offset="1" style="stop-color:#FAAA43"/>
		</radialGradient>
		<path fill="url(#XMLID_573_)" d="M61.081,43.056c-1.356-3.37-0.083-6.998,3.828-8.563c3.912-1.565,8.305-0.571,9.661,2.799
			c1.355,3.37-0.771,7.762-4.691,9.328C65.967,48.185,62.428,46.426,61.081,43.056z"/>
	</g>
</g>
</svg>
