<?xml version="1.0" encoding="utf-8"?>
<!-- Generator: Adobe Illustrator 12.0.0, SVG Export Plug-In . SVG Version: 6.00 Build 51448)  -->
<!DOCTYPE svg PUBLIC "-//W3C//DTD SVG 1.1//EN" "http://www.w3.org/Graphics/SVG/1.1/DTD/svg11.dtd" [
	<!ENTITY ns_svg "http://www.w3.org/2000/svg">
	<!ENTITY ns_xlink "http://www.w3.org/1999/xlink">
]>
<svg  version="1.1" id="レイヤー_1" xmlns="&ns_svg;" xmlns:xlink="&ns_xlink;" width="128" height="128"
	 viewBox="-13 -13 128 128" overflow="visible" enable-background="new -13 -13 128 128" xml:space="preserve">
<linearGradient id="XMLID_97_" gradientUnits="userSpaceOnUse" x1="66.5703" y1="1243.6631" x2="66.5703" y2="1284.0227" gradientTransform="matrix(0.7641 -0.163 0.163 0.7641 -222.8989 -857.1836)">
	<stop  offset="0.2863" style="stop-color:#FFC31A"/>
	<stop  offset="0.453" style="stop-color:#FEBC1B"/>
	<stop  offset="0.6934" style="stop-color:#FCA91F"/>
	<stop  offset="0.9775" style="stop-color:#F78A24"/>
	<stop  offset="1" style="stop-color:#F78725"/>
</linearGradient>
<path fill="url(#XMLID_97_)" d="M28.584,112.401c-2.204-0.095-7.211-0.84-7.361-5.643c-0.07-2.648,0.555-4.672,1.859-6.021
	c1.684-1.729,4.238-2.099,6.082-2.099c1.304,0,2.249,0.18,2.259,0.189l1.614,0.32l-4.243-18.46l17.261,4.147l-2.144,22.803
	c-0.209,2.289-2.109,4.113-4.407,4.218L28.584,112.401z"/>
<path fill="#D68200" d="M30.218,82.123L44.92,85.65l-2.054,21.894c-0.17,1.769-1.634,3.178-3.418,3.263l-10.874,0.54
	c-2.344-0.104-6.182-0.854-6.287-4.607c-0.065-2.354,0.455-4.123,1.554-5.257c1.424-1.465,3.678-1.774,5.322-1.774
	c1.189,0,2.049,0.17,2.049,0.17l3.223,0.649l-0.734-3.203L30.218,82.123 M27.385,79.26l4.253,18.52c0,0-1.03-0.21-2.469-0.21
	c-3.438,0-9.225,1.185-8.99,9.21c0.135,4.728,4.228,6.512,8.416,6.682l10.974-0.54c2.838-0.14,5.152-2.344,5.417-5.188l2.224-23.722
	L27.385,79.26z"/>
<linearGradient id="XMLID_98_" gradientUnits="userSpaceOnUse" x1="271.9922" y1="1012.0732" x2="240.0871" y2="1058.8589" gradientTransform="matrix(0.7813 0 0 0.7813 -102.5066 -714.8142)">
	<stop  offset="0" style="stop-color:#FED133"/>
	<stop  offset="0.4685" style="stop-color:#FBAD2C"/>
	<stop  offset="1" style="stop-color:#F78725"/>
</linearGradient>
<path fill="url(#XMLID_98_)" d="M97.547,103.271c-6.352,0-12.174-3.488-13.793-4.548l0.055-4.888l3.993,1.55
	c2.239,0.869,4.583,1.304,6.977,1.304c2.163,0,3.573-0.374,3.628-0.385c3.613-1.069,5.911-2.693,7.046-4.972
	c1.764-3.528,0.17-7.736-1.089-11.109c-0.85-2.249-1.72-4.577-0.965-5.267c0.869-0.81,1.719-1.22,2.523-1.22
	c1.779,0,3.633,2.119,4.822,5.542c2.384,6.826,1.609,16.456-3.808,20.769C104.248,102.191,101.085,103.271,97.547,103.271z"/>
<path fill="#D68200" d="M105.912,74.787c1.279,0,2.818,1.938,3.822,4.832c1.115,3.193,1.489,7.191,1,10.689
	c-0.38,2.753-1.475,6.531-4.463,8.904c-2.503,1.994-5.441,3.004-8.74,3.004c-5.542,0-10.704-2.823-12.718-4.063l0.03-2.769
	l2.563,0.999c2.354,0.91,4.837,1.374,7.371,1.374c2.259,0,3.743-0.38,3.902-0.419l0.03-0.016l0.02-0.01
	c3.894-1.154,6.396-2.958,7.666-5.512c1.959-3.948,0.285-8.386-1.049-11.959c-0.53-1.399-1.314-3.513-1.175-4.178
	C104.628,75.252,105.287,74.787,105.912,74.787 M105.912,72.663c-1.029,0-2.124,0.47-3.243,1.499
	c-3.618,3.358,10.384,16.696-4.538,21.118c0,0-1.304,0.35-3.353,0.35c-1.77,0-4.093-0.265-6.592-1.229l-5.417-2.1l-0.085,6.981
	c0,0,6.961,5.053,14.862,5.053c3.338,0,6.836-0.905,10.049-3.458C117.031,93.371,112.823,72.663,105.912,72.663z"/>
<linearGradient id="XMLID_99_" gradientUnits="userSpaceOnUse" x1="178.624" y1="978.3467" x2="236.6658" y2="1058.5709" gradientTransform="matrix(0.7813 0 0 0.7813 -102.5066 -714.8142)">
	<stop  offset="0" style="stop-color:#FED133"/>
	<stop  offset="0.2974" style="stop-color:#FCBF30"/>
	<stop  offset="0.8917" style="stop-color:#F89027"/>
	<stop  offset="1" style="stop-color:#F78725"/>
</linearGradient>
<path fill="url(#XMLID_99_)" d="M69.147,112.94c-2.484,0-5.952-0.18-7.427-1.719c-2.063-2.164-3.667-4.452-5.352-6.881
	c-4.028-5.787-8.196-11.764-19.26-16.846C22.942,80.988,26.116,62.498,26.865,58.98l32.527-9.34
	c1.219,0.879,6.571,5.192,24.786,23.927c14.382,14.787,8.405,30.713,4.728,34.536c-3.988,4.147-4.612,4.357-13.317,4.612
	c-0.7,0.025-1.444,0.055-2.214,0.095C71.995,112.876,70.557,112.94,69.147,112.94z"/>
<path fill="#D68200" d="M59.168,50.805c1.759,1.379,7.62,6.407,24.256,23.492c13.083,13.453,8.746,28.89,4.728,33.067
	c-3.772,3.923-4.122,4.037-12.583,4.292c-0.709,0.025-1.454,0.056-2.233,0.096c-1.38,0.064-2.804,0.13-4.178,0.13
	c-3.544,0-5.782-0.47-6.646-1.39c-2.015-2.108-3.583-4.367-5.247-6.756c-3.923-5.627-8.366-11.999-19.699-17.206
	c-6.117-2.809-9.595-8.256-10.334-16.176c-0.425-4.503,0.19-8.61,0.56-10.54L59.168,50.805 M59.563,48.486l-33.587,9.645
	c0,0-5.917,22.697,10.699,30.328c15.421,7.086,17.196,16.076,24.297,23.497c1.589,1.664,4.812,2.044,8.186,2.044
	c2.233,0,4.537-0.159,6.477-0.22c8.745-0.265,9.739-0.47,14.047-4.942c4.503-4.688,9.54-21.333-4.742-36.015
	C62.91,50.18,59.563,48.486,59.563,48.486z"/>
<path fill="#FFECB3" d="M43.901,61.998c2.114-4.887-16.386-3.668-16.876,2.739c-0.49,6.401,0.19,12.508,3.793,16.61
	c5.832,6.627,13.603,9.54,13.603,9.54S41.167,68.36,43.901,61.998z"/>
<path fill="#FED133" d="M4.867,28.022c-0.87,0-1.674-0.17-2.394-0.495C-6.676,23.35-8.625,4.425-8.646,4.235
	c-0.14-1.369,0.275-2.738,1.12-3.743c0.774-0.924,1.859-1.484,3.033-1.569c1.165-0.085,2.374-0.14,3.593-0.14
	c4.822,0,13.772,0.72,19.484,5.577c3.499,2.968,2.494,7.591,1.58,10.084C17.555,21.556,10.264,28.022,4.867,28.022z"/>
<path fill="#EB8F00" d="M-0.89-1.946v1.799c7.426,0,14.802,1.944,18.8,5.327c2.863,2.424,2.269,6.177,1.264,8.905
	C16.746,20.711,9.79,26.963,4.872,26.963c-0.709,0-1.379-0.14-1.964-0.405C-4.228,23.295-7.096,9.258-7.596,4.13
	c-0.104-1.084,0.21-2.164,0.88-2.958c0.595-0.7,1.409-1.124,2.299-1.199c1.144-0.085,2.333-0.13,3.523-0.13l0.01-2.119 M-0.91-2.266
	c-1.294,0-2.534,0.055-3.668,0.14C-7.781-1.881-10.024,1.052-9.71,4.34c0.435,4.388,3.173,20.239,11.739,24.152
	c0.89,0.399,1.844,0.595,2.838,0.595c9.745,0,23.143-18.12,14.397-25.531C13.987-0.917,5.771-2.266-0.91-2.266z"/>
<path fill="#EB8F00" d="M-7.916,8.178c-0.12-0.85-0.189-1.784,0.275-2.494c0.615-0.935,1.889-1.08,2.989-1.049
	c3.003,0.095,5.992,0.895,8.66,2.313c1.339,0.709,2.664,1.644,3.268,3.053c0.935,2.164-0.085,4.623-1.094,6.722
	c-0.7,1.464-1.409,2.948-2.414,4.218C2.928,22,1.739,23.07,0.435,23.475c-1.314,0.405-1.929-0.699-2.668-1.674
	c-1.929-2.569-3.448-5.462-4.462-8.516C-7.261,11.636-7.661,9.917-7.916,8.178z"/>
<path fill="#FED133" d="M58.742,18.198c-6.166,0-14.342-4.678-17.49-10.04c-1.644-2.809-1.804-5.427-0.465-7.806
	c3.688-6.571,12.613-11.089,19.74-13.133c0.389-0.12,0.805-0.17,1.209-0.17c2.099,0,3.953,1.524,4.537,3.698
	c0.051,0.185,4.813,18.555-2.304,25.666C62.75,17.623,61.002,18.198,58.742,18.198z"/>
<path fill="#EB8F00" d="M61.721-11.881c1.615,0,3.059,1.199,3.514,2.903c1.314,4.982,3.518,19.14-2.023,24.691
	c-1,0.995-2.504,1.504-4.479,1.504c-5.852,0-13.592-4.462-16.571-9.56c-1.439-2.474-1.599-4.742-0.455-6.776
	C45.25-5.415,53.9-9.772,60.812-11.766C61.121-11.836,61.426-11.881,61.721-11.881 M61.721-14c-0.494,0-0.994,0.06-1.494,0.209
	c-6.791,1.954-16.316,6.437-20.363,13.643c-4.962,8.845,9.215,19.49,18.879,19.49c2.389,0,4.488-0.65,5.973-2.124
	c6.656-6.656,3.708-22.463,2.573-26.726C66.578-12.191,64.279-14,61.721-14z"/>
<path fill="#EB8F00" d="M66.948-5.285c-0.18-0.839-0.444-1.739-1.119-2.239c-0.905-0.654-2.144-0.35-3.163,0.065
	c-2.773,1.135-5.297,2.924-7.312,5.182c-1.009,1.125-1.919,2.469-1.994,3.998c-0.13,2.354,1.694,4.292,3.368,5.917
	c1.164,1.134,2.353,2.269,3.743,3.103c1.154,0.7,2.639,1.294,4.008,1.209s1.569-1.324,1.919-2.504
	c0.925-3.073,1.334-6.316,1.22-9.54C67.533-1.832,67.323-3.581,66.948-5.285z"/>
<linearGradient id="XMLID_100_" gradientUnits="userSpaceOnUse" x1="90.6533" y1="1108.0176" x2="90.6533" y2="1176.9933" gradientTransform="matrix(0.7689 -0.1384 0.1384 0.7689 -193.2348 -835.9869)">
	<stop  offset="0.5094" style="stop-color:#FED133"/>
	<stop  offset="0.6339" style="stop-color:#FDCE32"/>
	<stop  offset="0.7405" style="stop-color:#FCC32E"/>
	<stop  offset="0.8403" style="stop-color:#F9B128"/>
	<stop  offset="0.9" style="stop-color:#F6A323"/>
</linearGradient>
<path fill="url(#XMLID_100_)" d="M33.566,64.457c-13.632,0-29.524-7.396-33.267-28.154C-3.868,13.161,12.033-0.592,28.574-3.561
	c2.344-0.425,4.708-0.635,7.046-0.635c17.186,0,30.278,11.049,33.351,28.145c3.979,22.118-11.213,36.8-28.274,39.863
	C38.324,64.248,35.93,64.457,33.566,64.457z"/>
<path fill="#EB8F00" d="M35.625-3.136c7.781,0,14.882,2.334,20.543,6.756c6.137,4.792,10.21,11.894,11.759,20.514
	c1.769,9.86-0.225,18.85-5.757,25.991c-5.077,6.552-12.773,11.039-21.658,12.639c-2.313,0.414-4.647,0.625-6.946,0.625
	c-13.198,0-28.599-7.167-32.217-27.276c-1.799-10.02,0.18-19.06,5.727-26.156C12.123,3.516,19.829-0.917,28.764-2.531
	C31.043-2.921,33.356-3.136,35.625-3.136 M35.625-5.254c-2.409,0-4.828,0.22-7.241,0.645C10.009-1.302-4.833,13.765-0.75,36.493
	c3.528,19.604,18.435,29.029,34.306,29.029c2.429,0,4.887-0.225,7.326-0.659c18.37-3.308,33.137-18.795,29.129-41.098
	C66.514,4.285,51.537-5.254,35.625-5.254z"/>
<g>
	
		<line fill="none" stroke="#404040" stroke-width="2.4659" stroke-linecap="round" stroke-linejoin="round" stroke-miterlimit="10" x1="3.543" y1="61.589" x2="15.142" y2="52.584"/>
	
		<line fill="none" stroke="#404040" stroke-width="2.4659" stroke-linecap="round" stroke-linejoin="round" stroke-miterlimit="10" x1="13.413" y1="48.146" x2="0.185" y2="52.479"/>
	
		<line fill="none" stroke="#404040" stroke-width="2.4659" stroke-linecap="round" stroke-linejoin="round" stroke-miterlimit="10" x1="-1.589" y1="42.664" x2="12.703" y2="43.564"/>
</g>
<g>
	
		<line fill="none" stroke="#404040" stroke-width="2.4659" stroke-linecap="round" stroke-linejoin="round" stroke-miterlimit="10" x1="74.754" y1="48.771" x2="60.746" y2="44.378"/>
	
		<line fill="none" stroke="#404040" stroke-width="2.4659" stroke-linecap="round" stroke-linejoin="round" stroke-miterlimit="10" x1="60.822" y1="39.611" x2="74.734" y2="39.071"/>
	
		<line fill="none" stroke="#404040" stroke-width="2.4659" stroke-linecap="round" stroke-linejoin="round" stroke-miterlimit="10" x1="72.96" y1="29.251" x2="59.893" y2="35.073"/>
</g>
<line fill="none" stroke="#EB8F00" stroke-width="4.3153" stroke-linecap="round" stroke-linejoin="round" stroke-miterlimit="10" x1="23.572" y1="-1.037" x2="25.996" y2="12.471"/>
<line fill="none" stroke="#EB8F00" stroke-width="4.3153" stroke-linecap="round" stroke-linejoin="round" stroke-miterlimit="10" x1="33.852" y1="-2.891" x2="36.28" y2="10.617"/>
<g>
	<path fill="#404040" d="M10.909,29.756c-0.64-3.553,1.39-6.886,4.528-7.451c3.143-0.565,6.207,1.854,6.846,5.402
		c0.64,3.553-1.389,6.886-4.533,7.451C14.612,35.723,11.548,33.304,10.909,29.756z"/>
	<path fill="#404040" d="M45.445,23.455c-0.634-3.548,1.39-6.886,4.533-7.451c3.138-0.564,6.202,1.854,6.841,5.407
		c0.64,3.548-1.389,6.886-4.528,7.451C49.148,29.427,46.084,27.008,45.445,23.455z"/>
</g>
<path fill="none" d="M36.535,37.902L36.535,37.902z"/>
<path fill="none" d="M39.503,53.743c2.129-0.405,3.933-1.519,5.227-3.063C43.446,52.214,41.632,53.338,39.503,53.743z"/>
<path fill="none" d="M46.384,47.677c-0.18,0.549-0.405,1.084-0.689,1.579C45.979,48.761,46.205,48.226,46.384,47.677z"/>
<path fill="none" d="M39.503,53.743c-2.129,0.4-4.218,0.01-5.977-0.964C35.286,53.753,37.384,54.133,39.503,53.743z"/>
<path fill="none" d="M32.112,51.804c-0.445-0.375-0.845-0.774-1.204-1.234C31.268,51.03,31.667,51.444,32.112,51.804z"/>
<path fill="none" d="M36.535,37.902L36.535,37.902z"/>
<path fill="#404040" d="M36.535,37.902c0.825,4.403-3.678,7.401-7.591,8.13l0.105,0.555c0.29,1.515,0.935,2.874,1.844,3.993
	c0.365,0.445,0.774,0.859,1.209,1.229c0.444,0.375,0.914,0.69,1.424,0.965c1.759,0.979,3.848,1.359,5.977,0.969
	c2.129-0.395,3.933-1.519,5.227-3.068c0.37-0.445,0.689-0.909,0.964-1.419c0.275-0.5,0.51-1.03,0.689-1.579
	c0.445-1.379,0.56-2.874,0.275-4.398l-0.105-0.555C42.642,43.469,37.359,42.305,36.535,37.902z"/>
<g>
	<g>
		<defs>
			<path id="XMLID_89_" d="M46.564,42.739l0.105,0.55c0.285,1.514,0.17,3.018-0.275,4.397c-0.18,0.55-0.405,1.084-0.689,1.579
				c-0.275,0.5-0.605,0.979-0.965,1.419c-1.284,1.539-3.098,2.664-5.227,3.068c-0.265,0.05-0.53,0.085-0.794,0.115
				c-0.265,0.02-0.53,0.04-0.785,0.04c-0.785,0.015-1.559-0.095-2.293-0.275c-0.74-0.19-1.439-0.475-2.099-0.834
				c-0.495-0.275-0.975-0.604-1.419-0.964c-0.444-0.37-0.849-0.775-1.209-1.229c-0.91-1.125-1.569-2.484-1.844-3.998l-0.105-0.549
				c3.913-0.735,8.416-3.733,7.591-8.131C37.359,42.305,42.642,43.469,46.564,42.739z"/>
		</defs>
		<clipPath id="XMLID_101_">
			<use xlink:href="#XMLID_89_" />
		</clipPath>
	</g>
	<g>
		<defs>
			<path id="XMLID_91_" d="M46.564,42.739l0.105,0.55c0.285,1.514,0.17,3.018-0.275,4.397c-0.18,0.55-0.405,1.084-0.689,1.579
				c-0.275,0.5-0.605,0.979-0.965,1.419c-1.284,1.539-3.098,2.664-5.227,3.068c-0.265,0.05-0.53,0.085-0.794,0.115
				c-0.265,0.02-0.53,0.04-0.785,0.04c-0.785,0.015-1.559-0.095-2.293-0.275c-0.74-0.19-1.439-0.475-2.099-0.834
				c-0.495-0.275-0.975-0.604-1.419-0.964c-0.444-0.37-0.849-0.775-1.209-1.229c-0.91-1.125-1.569-2.484-1.844-3.998l-0.105-0.549
				c3.913-0.735,8.416-3.733,7.591-8.131C37.359,42.305,42.642,43.469,46.564,42.739z"/>
		</defs>
		<defs>
			<path id="XMLID_92_" d="M46.564,42.739l0.105,0.55c0.285,1.514,0.17,3.018-0.275,4.397c-0.18,0.55-0.405,1.084-0.689,1.579
				c-0.275,0.5-0.605,0.979-0.965,1.419c-1.284,1.539-3.098,2.664-5.227,3.068c-0.265,0.05-0.53,0.085-0.794,0.115
				c-0.265,0.02-0.53,0.04-0.785,0.04c-0.785,0.015-1.559-0.095-2.293-0.275c-0.74-0.19-1.439-0.475-2.099-0.834
				c-0.495-0.275-0.975-0.604-1.419-0.964c-0.444-0.37-0.849-0.775-1.209-1.229c-0.91-1.125-1.569-2.484-1.844-3.998l-0.105-0.549
				c3.913-0.735,8.416-3.733,7.591-8.131C37.359,42.305,42.642,43.469,46.564,42.739z"/>
		</defs>
		<clipPath id="XMLID_102_">
			<use xlink:href="#XMLID_91_" />
		</clipPath>
		<clipPath id="XMLID_103_" clip-path="url(#XMLID_102_)">
			<use xlink:href="#XMLID_92_" />
		</clipPath>
		<path clip-path="url(#XMLID_103_)" fill="#ED7770" d="M32.422,56.382c-0.755-4.028,1.894-7.911,5.927-8.66
			c4.027-0.755,7.905,1.894,8.66,5.922"/>
	</g>
</g>
<g opacity="0.12">
	<path fill="#404040" d="M36.535,37.902L36.535,37.902z"/>
	<path fill="#404040" d="M44.73,50.68c-1.284,1.534-3.093,2.659-5.227,3.063C41.632,53.338,43.446,52.214,44.73,50.68z"/>
	<path fill="#404040" d="M46.384,47.677c-0.18,0.549-0.405,1.084-0.689,1.579C45.979,48.761,46.205,48.226,46.384,47.677z"/>
	<path fill="#404040" d="M33.526,52.779c0.01,0.01,0.02,0.01,0.03,0.02C33.546,52.789,33.537,52.779,33.526,52.779z M33.557,52.789
		c1.049,0.575,2.204,0.945,3.423,1.06C35.771,53.733,34.606,53.363,33.557,52.789z M39.503,53.743
		c-0.56,0.105-1.115,0.16-1.664,0.16c-0.285,0-0.575-0.015-0.86-0.045c0.285,0.03,0.575,0.045,0.86,0.045
		C38.389,53.888,38.954,53.838,39.503,53.743z"/>
	<path fill="#404040" d="M30.908,50.585c0.359,0.445,0.77,0.859,1.204,1.229C31.667,51.444,31.268,51.03,30.908,50.585z"/>
	<path fill="#404040" d="M36.535,37.902L36.535,37.902L36.535,37.902z"/>
	<path fill="#404040" d="M37.285,41.815c1.634,1.539,4.103,2.429,7.041,2.429c0.385,0,0.774-0.02,1.145-0.055
		c0.11,1.04-0.01,2.099-0.325,3.088c-0.15,0.465-0.35,0.919-0.584,1.354c-0.235,0.425-0.52,0.84-0.825,1.209
		c-1.134,1.359-2.729,2.289-4.462,2.619c-0.47,0.085-0.944,0.14-1.424,0.14c-1.279,0-2.554-0.33-3.688-0.954
		c-0.425-0.235-0.839-0.52-1.209-0.825c-0.379-0.32-0.719-0.669-1.039-1.049c-0.655-0.81-1.145-1.749-1.419-2.759
		C33.417,46.152,36.09,44.318,37.285,41.815 M36.535,37.902c0.825,4.403-3.678,7.401-7.591,8.13l0.105,0.555
		c0.29,1.515,0.935,2.874,1.844,3.993c0.365,0.445,0.774,0.859,1.209,1.229c0.444,0.375,0.914,0.69,1.424,0.965
		c1.29,0.725,2.773,1.114,4.313,1.114c0.549,0,1.104-0.05,1.664-0.16c2.134-0.399,3.933-1.514,5.227-3.063
		c0.37-0.445,0.689-0.91,0.964-1.419c0.275-0.5,0.51-1.029,0.689-1.579c0.445-1.379,0.565-2.874,0.275-4.397l-0.105-0.555
		c-0.709,0.14-1.464,0.2-2.233,0.2C40.873,42.939,37.214,41.51,36.535,37.902z"/>
</g>
<path fill="none" stroke="#404040" stroke-width="1.8436" stroke-linecap="round" stroke-linejoin="round" stroke-miterlimit="10" d="
	M36.525,36.388c0.785,4.208-1.984,8.261-6.191,9.045c-1.919,0.36-3.818-0.025-5.377-0.944"/>
<path fill="none" stroke="#404040" stroke-width="1.8436" stroke-linecap="round" stroke-linejoin="round" stroke-miterlimit="10" d="
	M36.49,36.398c0.785,4.212,4.837,6.976,9.045,6.191c1.919-0.36,3.538-1.399,4.662-2.829"/>
<linearGradient id="XMLID_104_" gradientUnits="userSpaceOnUse" x1="90.6992" y1="1141.9502" x2="90.6992" y2="1152.5983" gradientTransform="matrix(0.7689 -0.1384 0.1384 0.7689 -193.2348 -835.9869)">
	<stop  offset="0.1628" style="stop-color:#75443E"/>
	<stop  offset="0.4498" style="stop-color:#512926"/>
	<stop  offset="0.8118" style="stop-color:#290B0A"/>
	<stop  offset="1" style="stop-color:#1A0000"/>
</linearGradient>
<path fill="url(#XMLID_104_)" d="M37.5,36.708l2.789-4.572c0.964-1.589-0.39-3.583-2.224-3.253l-7.001,1.264
	c-1.834,0.325-2.414,2.668-0.95,3.823l4.208,3.308C35.335,38.082,36.83,37.817,37.5,36.708z"/>
<linearGradient id="XMLID_105_" gradientUnits="userSpaceOnUse" x1="195.0811" y1="1018.4639" x2="195.0811" y2="1066.3763" gradientTransform="matrix(0.7809 -0.002 -0.002 0.772 -101.647 -710.8986)">
	<stop  offset="0.139" style="stop-color:#FFB733"/>
	<stop  offset="0.5983" style="stop-color:#FFB733"/>
	<stop  offset="1" style="stop-color:#F78725"/>
</linearGradient>
<path fill="url(#XMLID_105_)" stroke="#D68200" stroke-width="2" stroke-miterlimit="10" d="M44.615,72.473l1.809,27.065
	c0,0-12.008-4.103-11.704,7.041c0.13,4.668,5.123,6.257,9.31,6.407l10.959-0.565c2.843-0.149,4.922-4.632,5.432-5.132l2.109-35.196"
	/>
<path fill="#D68200" d="M69.517,59.945c-0.329-1.165-1.424-2.27-2.344-3.159c-0.29-0.82-1.369-1.434-2.294-0.754
	c-3.053,2.269-5.606,5.106-8.275,7.8c-0.385,0.386-0.765,0.775-1.01,1.265c-0.235,0.485-0.31,1.09-0.03,1.56
	c0.295,0.505,0.919,0.75,1.504,0.739c0.58-0.01,1.144-0.225,1.694-0.425c2.663-1.02,5.367-1.938,7.921-3.203
	c0.754-0.369,1.514-0.77,2.108-1.364C69.611,61.589,69.747,60.75,69.517,59.945z"/>
<path fill="#D68200" d="M78.207,68.415c-0.03-0.265-0.104-0.55-0.21-0.869c-0.479-1.444-3.033-4.923-4.867-3.628
	c-2.044,1.434-4.103,3.168-5.712,5.172c-0.72,0.904-2.914,3.938-2.248,5.143c0.943,1.698,9.189-2.499,10.688-3.063
	C77.532,70.544,78.422,69.909,78.207,68.415z"/>
<path fill="#D68200" d="M54.8,76.99c-2.848-1.145-6.222-1.229-9.22-0.909c-1.135,0.115-1.435,1.145-1.135,1.979
	c-0.035,0.065-0.075,0.11-0.104,0.17c-1.075,2.174,0.875,4.273,3.008,4.498c2.364,0.245,5.522-0.35,7.601-1.529
	C56.829,80.139,56.889,77.83,54.8,76.99z"/>
<path fill="#D68200" d="M53.75,88.544c-1.919-1.299-4.867-1.164-6.966-0.505c-0.38,0.115-0.665,0.335-0.859,0.615
	c-0.305,0.189-0.56,0.475-0.675,0.814c-0.395,1.135-0.555,2.459-0.12,3.508c0.01,0.785,0.49,1.56,1.424,1.539
	c0.06,0,0.115-0.01,0.17-0.01c0.03,0.01,0.04,0.03,0.075,0.03c1.894,0.689,4.672-0.405,6.361-1.274
	C55.055,92.297,55.725,89.894,53.75,88.544z"/>
<path fill="#D68200" d="M100.495,101.532c-0.965-1.294-1.34-2.958-0.979-4.538c0.265-1.164-1.27-1.854-1.834-1.069
	c-0.435-0.045-0.899,0.136-1.135,0.635c-0.754,1.654-0.664,3.554,0.18,5.152c0.085,0.15,0.181,0.265,0.3,0.365
	c-0.104,0.465,0.051,0.964,0.655,1.099c0.765,0.186,1.444,0.226,2.219,0.091C100.734,103.111,100.949,102.146,100.495,101.532z"/>
<path fill="#D68200" d="M107.246,98.714c-1.599-0.915-2.514-2.544-2.363-4.388c0.104-1.359-2.004-1.51-2.119-0.15v0.096
	c-0.35,0.114-0.659,0.404-0.715,0.869c-0.284,2.514,1.114,4.803,3.354,5.896c0.569,0.275,1.015-0.015,1.219-0.449
	C107.566,100.558,108.23,99.273,107.246,98.714z"/>
<path fill="#D68200" d="M110.689,91.737c-1.555-0.415-2.783-1.304-3.678-2.639c-0.75-1.134-2.354,0.265-1.6,1.39
	c-0.125,0.255-0.17,0.56-0.03,0.89c0.815,1.969,2.754,3.308,4.873,3.403c0.944,0.039,1.294-0.965,0.969-1.6
	C111.519,92.646,111.444,91.928,110.689,91.737z"/>
<path fill="#D68200" d="M110.149,77.216c0.01-0.195,0.025-0.385,0-0.585c-0.125-1.104-1.024-1.824-2.089-1.709
	c-0.425-0.265-0.909-0.465-1.419-0.54c-0.115-0.02-0.235-0.01-0.34,0.021c-0.435-0.23-1.005-0.221-1.384,0.279
	c-0.186,0.245-0.34,0.495-0.471,0.77c-0.339,0.101-0.654,0.34-0.754,0.67c-0.38,1.359-0.305,2.648,0.274,3.942
	c0.15,0.34,0.47,0.521,0.8,0.565c0.03,0.274,0.155,0.539,0.435,0.689c2.499,1.409,5.597-0.101,5.692-3.078
	C110.904,77.68,110.564,77.34,110.149,77.216z"/>
<path fill="#D68200" d="M90.835,86.99c-0.35-2.124-1.089-4.158-2.758-5.567c-0.275-0.234-0.615-0.329-0.975-0.35
	c-0.4-0.585-1.09-0.925-2.015-0.649c-3.468,1.06-6.815,2.504-9.774,4.622c-1.864,1.335-3.518,4.168-0.784,5.702
	c1.474,0.829,3.723,0.574,5.332,0.55c2.049-0.03,4.213-0.085,6.236-0.43c1.274-0.226,2.584-0.755,3.488-1.614
	C90.391,88.919,91.015,88.124,90.835,86.99z"/>
<path fill="#D68200" d="M93.379,96.36c-0.16-0.351-0.39-0.67-0.68-0.955c1.169-1.145,0.095-3.288-2.299-2.894
	c-2.259,0.37-4.482,0.89-6.592,1.6c-1.764,0.595-4.412,1.379-5.451,2.684c-2.949,3.678,4.433,4.527,7.485,4.462
	C89.331,101.183,94.993,99.943,93.379,96.36z"/>
<path fill="#D68200" d="M37.809,92.393c-1.349-0.655-2.749-1.13-4.212-1.439c-1.125-0.235-2.289,0.114-2.704,1.294
	c-0.22,0.635-0.075,1.504,0.37,2.084c-0.155,0.265-0.265,0.564-0.285,0.895c-0.085,1.249,0.839,2.054,1.974,2.254
	c0.275,0.055,0.54,0.045,0.795-0.01c1.504-0.04,2.988-0.415,4.292-1.175C39.703,95.32,39.463,93.201,37.809,92.393z"/>
<path fill="none" stroke="#D68200" stroke-width="3" stroke-linejoin="round" stroke-miterlimit="10" d="M68.997,83.297
	c-3.798,1.329-6.066,5.707-6.146,9.17c-0.085,3.469,1.674,6.937,4.537,8.905c-2.429,0.035-4.792,1.435-5.991,3.553
	c-1.199,2.119-1.145,4.878,0.095,6.957"/>
</svg>
